<svg xmlns="http://www.w3.org/2000/svg" xmlns:xlink="http://www.w3.org/1999/xlink" width="2050px" height="2050px" viewBox="0 0 2050 2050">
    <g style="" id="2c29f095-f126-483f-9e42-caed3669e347">
<g style=""><path d="M-469.63563 53.22145L-431.03867 -76.92563L-441.62930 -90.81113L-396.44261 -90.81113L-402.09094 -70.33591L-367.96558 53.22145L-352.19730 73.93202L-397.38400 73.93202L-391.73566 53.22145L-425.39033 -68.68848L-461.86917 53.22145L-456.69153 73.93202L-486.10995 73.93202ZM-413.38761 32.74623L-426.56707 51.33867L-439.74652 32.74623L-426.56707 14.15379Z" fill="rgb(164,122,47)" fill-opacity="1.00" transform="matrix(1.308375 0 0 1.308375 1025.000127 801.371234) translate(0 0)"></path><path d="M-320.19007 -70.33591L-331.01604 -90.81113L-273.82664 -90.81113C-232.87620 -90.81113 -211.93029 -69.86521 -211.93029 -35.26915C-211.93029 -0.67309 -243.93753 23.33234 -272.64990 23.33234C-276.88615 23.33234 -280.65171 22.62629 -283.94657 21.68490C-266.29552 44.51360 -220.16744 95.11328 -157.56505 95.11328C-138.50191 95.11328 -120.14482 84.75799 -120.14482 84.75799C-120.14482 84.75799 -123.67503 120.06010 -165.56686 120.06010C-238.52454 120.06010 -300.42089 10.62358 -300.65624 10.38823L-300.65624 53.22145L-289.83026 73.93202L-331.01604 73.93202L-320.19007 53.22145ZM-300.65624 -4.90935C-298.77346 1.44503 -293.12512 15.09518 -280.88706 15.09518C-228.87529 15.09518 -211.93029 -83.04466 -279.00428 -83.04466L-300.65624 -83.04466L-300.65624 -4.90935Z" fill="rgb(164,122,47)" fill-opacity="1.00" transform="matrix(1.308375 0 0 1.308375 1025.000127 801.371234) translate(0 0)"></path><path d="M-142.97351 73.93202L-184.15930 73.93202L-173.33332 53.22145L-173.33332 -70.33591L-184.15930 -90.81113L-142.97351 -90.81113L-153.79949 -70.33591L-153.79949 53.22145Z" fill="rgb(164,122,47)" fill-opacity="1.00" transform="matrix(1.308375 0 0 1.308375 1025.000127 801.371234) translate(0 0)"></path><path d="M-35.41978 -8.43956L-48.59923 10.15288L-61.77868 -8.43956L-48.59923 -27.03200ZM-57.07173 -90.81113C-12.12039 -90.81113 18.71011 -49.62534 18.71011 -8.43956C18.71011 32.74623 -12.12039 73.93202 -57.30708 73.93202L-114.26114 73.93202L-103.43516 53.22145L-103.43516 -70.33591L-114.26114 -90.81113L-57.07173 -90.81113ZM-60.13125 65.69486C-32.59561 65.69486 -4.35393 32.74623 -4.35393 -8.43956C-4.35393 -49.62534 -32.59561 -83.04466 -62.24937 -83.04466L-83.90133 -83.04466L-83.90133 65.69486L-60.13125 65.69486Z" fill="rgb(164,122,47)" fill-opacity="1.00" transform="matrix(1.308375 0 0 1.308375 1025.000127 801.371234) translate(0 0)"></path><path d="M110.02488 -93.87064C144.15025 -93.87064 171.92124 -53.86159 171.92124 -8.43956C171.92124 36.98248 144.15025 76.99153 110.02488 76.99153C75.89952 76.99153 48.36388 36.98248 48.36388 -8.43956C48.36388 -53.86159 75.89952 -93.87064 110.02488 -93.87064ZM133.08892 64.75347C152.62275 58.39909 158.03574 18.62539 145.32699 -19.97158C133.79497 -55.03833 111.20162 -82.57397 92.60918 -82.57397C90.72640 -82.57397 88.84362 -82.10328 86.96084 -81.63258C67.66236 -75.27820 62.24937 -35.73985 74.95813 3.09246C86.49015 38.15922 109.08350 65.69486 127.67594 65.69486C129.55871 65.69486 131.20615 65.22416 133.08892 64.75347ZM123.20434 -8.43956L110.02488 10.15288L97.08078 -8.43956L110.02488 -27.03200Z" fill="rgb(164,122,47)" fill-opacity="1.00" transform="matrix(1.308375 0 0 1.308375 1025.000127 801.371234) translate(0 0)"></path><path d="M247.46774 -90.81113L247.93843 -70.33591L310.07013 54.16284L310.54082 -70.33591L299.71485 -90.81113L331.01604 -90.81113L320.42541 -70.33591L320.42541 53.22145L331.01604 73.93202L284.88796 73.93202L284.65262 53.22145L222.52092 -70.80660L222.28557 53.22145L232.87620 73.93202L201.57500 73.93202L212.40098 53.22145L212.40098 -70.33591L201.81035 -90.34043L201.33966 -90.81113Z" fill="rgb(164,122,47)" fill-opacity="1.00" transform="matrix(1.308375 0 0 1.308375 1025.000127 801.371234) translate(0 0)"></path><path d="M368.20092 53.22145L406.79789 -76.92563L396.20726 -90.81113L441.39395 -90.81113L435.74561 -70.33591L469.87098 53.22145L485.63925 73.93202L440.45256 73.93202L446.10090 53.22145L412.44623 -68.68848L375.96739 53.22145L381.14503 73.93202L351.72661 73.93202ZM424.44894 32.74623L411.26949 51.33867L398.09004 32.74623L411.26949 14.15379Z" fill="rgb(164,122,47)" fill-opacity="1.00" transform="matrix(1.308375 0 0 1.308375 1025.000127 801.371234) translate(0 0)"></path></g></g>
<g style="" id="34df48cd-3b64-4e41-a761-1500b06a8ba1">
<g style=""><path d="M-321.13165 70.87254Q-312.42379 70.63720 -308.06987 69.81348Q-303.71594 68.98976 -303.00989 66.40094L-303.00989 -83.28006Q-303.48059 -85.63354 -306.89313 -86.45725Q-310.30567 -87.28097 -315.71866 -87.51632Q-321.13165 -87.75167 -326.54464 -87.75167L-326.54464 -90.81118L-288.88905 -90.57584L-288.88905 -72.92477Q-283.47605 -81.16194 -274.53285 -85.86889Q-265.58964 -90.57584 -253.35157 -90.81118Q-240.40746 -90.81118 -229.46380 -85.39819Q-218.52015 -79.98520 -212.04809 -70.68897Q-205.57603 -61.39275 -205.57603 -50.56676Q-205.57603 -38.09334 -213.81320 -27.97340Q-222.05036 -17.85346 -235.46516 -13.38186Q-217.57876 -9.61630 -205.92905 2.73944Q-194.27935 15.09519 -194.27935 31.09882Q-194.27935 43.33689 -201.45745 53.10381Q-208.63555 62.87073 -220.87362 68.40139Q-233.11169 73.93206 -247.93858 73.93206L-326.54464 73.93206L-326.54464 71.10789ZM-288.88905 66.87164Q-287.00627 71.34324 -267.23708 71.34324L-257.11713 71.10789Q-254.76366 70.87254 -252.41018 70.87254Q-240.64281 70.63720 -230.64054 65.45955Q-220.63827 60.28191 -214.87226 51.33870Q-209.10625 42.39550 -209.10625 31.09882Q-209.10625 19.80214 -214.87226 10.38824Q-220.63827 0.97434 -230.52287 -4.67400Q-240.40746 -10.32234 -251.93949 -10.32234L-253.82227 -10.32234Q-269.82590 -10.08699 -279.00445 0.85666Q-288.18300 11.80032 -288.88905 28.51000L-288.88905 66.87164ZM-288.88905 7.32872Q-283.71140 -2.08518 -274.06215 -7.85119Q-264.41291 -13.61721 -251.46879 -14.55860Q-237.34794 -16.44138 -228.05172 -26.67899Q-218.75549 -36.91661 -218.75549 -50.56676Q-218.75549 -60.45136 -223.93314 -68.80619Q-229.11078 -77.16103 -237.93631 -82.10333Q-246.76184 -87.04562 -257.35248 -87.04562Q-270.06125 -87.04562 -278.29841 -79.74985Q-286.53557 -72.45408 -288.88905 -60.45136L-288.88905 7.32872Z" fill="rgb(164,122,47)" fill-opacity="1.00" transform="matrix(0.928801 0 0 0.928801 1031.95792 1135.994064) translate(0 0)"></path><path d="M-160.86001 -63.27553Q-160.86001 -66.57039 -158.38886 -68.80619Q-155.91771 -71.04199 -152.38750 -71.04199Q-149.09264 -71.04199 -146.62149 -68.68852Q-144.15034 -66.33504 -144.15034 -63.27553Q-144.15034 -60.21601 -146.62149 -57.86253Q-149.09264 -55.50906 -152.38750 -55.50906Q-155.91771 -55.50906 -158.38886 -57.74486Q-160.86001 -59.98066 -160.86001 -63.27553ZM-144.85638 66.40094Q-144.38569 68.75442 -142.62058 69.69581Q-140.85547 70.63720 -137.08991 70.75487Q-133.32435 70.87254 -128.38206 71.10789L-128.38206 73.93206L-175.21621 73.93206L-175.21621 71.10789Q-170.50926 70.87254 -166.74370 70.75487Q-162.97814 70.63720 -161.21303 69.93115Q-159.44793 69.22511 -158.97723 67.10698L-158.97723 -33.38640Q-159.68327 -35.03383 -161.33071 -35.03383Q-162.50744 -35.03383 -164.86092 -34.09244Q-167.21439 -33.15105 -170.03856 -31.73896L-175.21621 -29.15014L-175.21621 -32.20966L-144.85638 -47.27190L-144.85638 66.40094Z" fill="rgb(164,122,47)" fill-opacity="1.00" transform="matrix(0.928801 0 0 0.928801 1031.95792 1135.994064) translate(0 0)"></path><path d="M-100.61105 -63.27553Q-100.61105 -66.57039 -98.13990 -68.80619Q-95.66876 -71.04199 -92.13854 -71.04199Q-88.60833 -71.04199 -86.25486 -68.80619Q-83.90138 -66.57039 -83.90138 -63.27553Q-83.90138 -59.98066 -86.25486 -57.74486Q-88.60833 -55.50906 -92.13854 -55.50906Q-95.66876 -55.50906 -98.13990 -57.74486Q-100.61105 -59.98066 -100.61105 -63.27553ZM-83.90138 78.63901Q-83.90138 88.99430 -88.96135 97.34914Q-94.02132 105.70397 -102.61151 110.41092Q-111.20169 115.11787 -121.55698 115.11787Q-128.38206 115.11787 -138.50200 112.76440L-138.50200 82.87527L-134.97179 82.87527L-133.55970 106.41001Q-125.32254 111.35231 -118.49746 111.35231Q-110.96634 111.35231 -106.37707 105.70397Q-101.78779 100.05563 -99.78734 92.40684Q-97.78688 84.75805 -98.02223 78.16832L-98.02223 -33.38640Q-98.72827 -35.03383 -100.14036 -35.03383Q-102.02314 -35.03383 -109.55426 -31.50362L-114.26121 -29.15014L-114.26121 -32.20966L-83.90138 -47.27190L-83.90138 78.63901Z" fill="rgb(164,122,47)" fill-opacity="1.00" transform="matrix(0.928801 0 0 0.928801 1031.95792 1135.994064) translate(0 0)"></path><path d="M-52.36482 12.27102Q-52.36482 -3.96796 -44.59835 -18.32416Q-36.83188 -32.68035 -23.29940 -41.38821Q-9.76692 -50.09607 6.70740 -50.09607Q23.18173 -50.09607 36.83188 -41.50588Q50.48204 -32.91570 58.24850 -18.55950Q66.01497 -4.20331 66.01497 12.27102Q66.01497 29.21604 58.01316 43.45456Q50.01134 57.69308 36.36119 66.04792Q22.71103 74.40276 6.70740 74.40276Q-9.29623 74.40276 -22.82871 66.04792Q-36.36119 57.69308 -44.36300 43.45456Q-52.36482 29.21604 -52.36482 12.27102ZM6.70740 -46.09516Q-5.29532 -46.09516 -15.41526 -38.21102Q-25.53520 -30.32688 -31.53656 -16.91207Q-37.53792 -3.49726 -37.53792 12.27102Q-37.53792 28.03930 -31.53656 41.45411Q-25.53520 54.86891 -15.41526 62.75306Q-5.29532 70.63720 6.70740 70.63720Q18.94547 70.63720 29.06542 62.75306Q39.18536 54.86891 45.18672 41.45411Q51.18808 28.03930 51.18808 12.27102Q51.18808 -1.14379 46.01043 -14.67627Q40.83279 -28.20875 30.71285 -37.15195Q20.59291 -46.09516 6.70740 -46.09516Z" fill="rgb(164,122,47)" fill-opacity="1.00" transform="matrix(0.928801 0 0 0.928801 1031.95792 1135.994064) translate(0 0)"></path><path d="M113.55516 -48.91933L113.55516 38.15924Q114.49655 54.39822 121.08628 62.87073Q127.67601 71.34324 137.32526 71.34324Q146.26847 71.34324 154.74098 63.92979Q163.21349 56.51635 167.44974 43.33689L167.44974 -42.32960Q166.74370 -44.91842 163.91953 -45.38912Q161.09536 -45.85981 151.44611 -46.09516L151.44611 -48.91933L181.57059 -48.91933L181.57059 67.10698Q182.27663 69.22511 184.04174 69.93115Q185.80684 70.63720 189.45473 70.75487Q193.10262 70.87254 197.80957 71.10789L197.80957 73.93206L167.44974 73.93206L167.44974 57.22239Q162.74279 64.04747 154.50563 69.10744Q146.26847 74.16741 138.73735 74.40276Q128.61740 74.40276 119.79187 70.04883Q110.96634 65.69490 105.43568 57.69308Q99.90501 49.69127 99.43431 39.57133L99.43431 -41.62356Q98.96362 -43.97703 97.19851 -44.91842Q95.43341 -45.85981 91.66785 -45.97749Q87.90229 -46.09516 83.19534 -46.09516L83.19534 -48.91933Z" fill="rgb(164,122,47)" fill-opacity="1.00" transform="matrix(0.928801 0 0 0.928801 1031.95792 1135.994064) translate(0 0)"></path><path d="M215.46063 71.10789Q220.16758 71.10789 224.05081 70.87254Q227.93405 70.63720 229.34613 69.93115L264.41291 11.80032L231.22891 -45.15377Q229.58148 -45.85981 226.05127 -45.97749Q222.52105 -46.09516 218.04945 -46.09516L218.04945 -48.91933L260.64735 -48.91933L260.64735 -46.09516Q257.35248 -46.09516 255.94040 -45.85981Q248.87997 -45.85981 246.99719 -45.15377L272.41472 -1.37914L297.59690 -43.03564Q296.42017 -45.15377 293.94902 -45.50679Q291.47787 -45.85981 281.59327 -46.09516L281.59327 -48.91933L318.07213 -48.91933L318.07213 -46.09516Q312.89449 -46.09516 309.01126 -45.85981Q305.12802 -45.62446 303.48059 -44.44773L275.00354 2.62177L300.42107 46.63175Q307.01080 57.92843 312.89449 67.10698Q314.30657 68.75442 315.48331 70.40185Q316.89540 70.63720 327.25069 71.10789L327.25069 73.93206L284.65279 73.93206L284.65279 71.10789Q289.12439 71.10789 292.88995 70.87254Q296.65551 70.63720 298.30294 69.93115L266.76638 16.03658L235.70051 67.57768Q236.64190 69.69581 238.87770 70.16650Q241.11350 70.63720 246.76184 70.87254L251.70414 71.10789L251.70414 73.93206L215.46063 73.93206L215.46063 71.10789Z" fill="rgb(164,122,47)" fill-opacity="1.00" transform="matrix(0.928801 0 0 0.928801 1031.95792 1135.994064) translate(0 0)"></path></g></g>

  </svg>