<svg xmlns="http://www.w3.org/2000/svg" xmlns:xlink="http://www.w3.org/1999/xlink" width="2050px" height="2050px" viewBox="0 0 2050 2050">
    <g style="" id="a499b680-4457-4462-a7fc-dee81b0ffd97">
<g style=""><path d="M-469.63563 53.22145L-431.03867 -76.92563L-441.62930 -90.81113L-396.44261 -90.81113L-402.09094 -70.33591L-367.96558 53.22145L-352.19730 73.93202L-397.38400 73.93202L-391.73566 53.22145L-425.39033 -68.68848L-461.86917 53.22145L-456.69153 73.93202L-486.10995 73.93202ZM-413.38761 32.74623L-426.56707 51.33867L-439.74652 32.74623L-426.56707 14.15379Z" fill="rgb(164,122,47)" fill-opacity="1.00" transform="matrix(1.506926 0 0 1.506926 1024.999746 608.677493) translate(0 0)"></path><path d="M-320.19007 -70.33591L-331.01604 -90.81113L-273.82664 -90.81113C-232.87620 -90.81113 -211.93029 -69.86521 -211.93029 -35.26915C-211.93029 -0.67309 -243.93753 23.33234 -272.64990 23.33234C-276.88615 23.33234 -280.65171 22.62629 -283.94657 21.68490C-266.29552 44.51360 -220.16744 95.11328 -157.56505 95.11328C-138.50191 95.11328 -120.14482 84.75799 -120.14482 84.75799C-120.14482 84.75799 -123.67503 120.06010 -165.56686 120.06010C-238.52454 120.06010 -300.42089 10.62358 -300.65624 10.38823L-300.65624 53.22145L-289.83026 73.93202L-331.01604 73.93202L-320.19007 53.22145ZM-300.65624 -4.90935C-298.77346 1.44503 -293.12512 15.09518 -280.88706 15.09518C-228.87529 15.09518 -211.93029 -83.04466 -279.00428 -83.04466L-300.65624 -83.04466L-300.65624 -4.90935Z" fill="rgb(164,122,47)" fill-opacity="1.00" transform="matrix(1.506926 0 0 1.506926 1024.999746 608.677493) translate(0 0)"></path><path d="M-142.97351 73.93202L-184.15930 73.93202L-173.33332 53.22145L-173.33332 -70.33591L-184.15930 -90.81113L-142.97351 -90.81113L-153.79949 -70.33591L-153.79949 53.22145Z" fill="rgb(164,122,47)" fill-opacity="1.00" transform="matrix(1.506926 0 0 1.506926 1024.999746 608.677493) translate(0 0)"></path><path d="M-35.41978 -8.43956L-48.59923 10.15288L-61.77868 -8.43956L-48.59923 -27.03200ZM-57.07173 -90.81113C-12.12039 -90.81113 18.71011 -49.62534 18.71011 -8.43956C18.71011 32.74623 -12.12039 73.93202 -57.30708 73.93202L-114.26114 73.93202L-103.43516 53.22145L-103.43516 -70.33591L-114.26114 -90.81113L-57.07173 -90.81113ZM-60.13125 65.69486C-32.59561 65.69486 -4.35393 32.74623 -4.35393 -8.43956C-4.35393 -49.62534 -32.59561 -83.04466 -62.24937 -83.04466L-83.90133 -83.04466L-83.90133 65.69486L-60.13125 65.69486Z" fill="rgb(164,122,47)" fill-opacity="1.00" transform="matrix(1.506926 0 0 1.506926 1024.999746 608.677493) translate(0 0)"></path><path d="M110.02488 -93.87064C144.15025 -93.87064 171.92124 -53.86159 171.92124 -8.43956C171.92124 36.98248 144.15025 76.99153 110.02488 76.99153C75.89952 76.99153 48.36388 36.98248 48.36388 -8.43956C48.36388 -53.86159 75.89952 -93.87064 110.02488 -93.87064ZM133.08892 64.75347C152.62275 58.39909 158.03574 18.62539 145.32699 -19.97158C133.79497 -55.03833 111.20162 -82.57397 92.60918 -82.57397C90.72640 -82.57397 88.84362 -82.10328 86.96084 -81.63258C67.66236 -75.27820 62.24937 -35.73985 74.95813 3.09246C86.49015 38.15922 109.08350 65.69486 127.67594 65.69486C129.55871 65.69486 131.20615 65.22416 133.08892 64.75347ZM123.20434 -8.43956L110.02488 10.15288L97.08078 -8.43956L110.02488 -27.03200Z" fill="rgb(164,122,47)" fill-opacity="1.00" transform="matrix(1.506926 0 0 1.506926 1024.999746 608.677493) translate(0 0)"></path><path d="M247.46774 -90.81113L247.93843 -70.33591L310.07013 54.16284L310.54082 -70.33591L299.71485 -90.81113L331.01604 -90.81113L320.42541 -70.33591L320.42541 53.22145L331.01604 73.93202L284.88796 73.93202L284.65262 53.22145L222.52092 -70.80660L222.28557 53.22145L232.87620 73.93202L201.57500 73.93202L212.40098 53.22145L212.40098 -70.33591L201.81035 -90.34043L201.33966 -90.81113Z" fill="rgb(164,122,47)" fill-opacity="1.00" transform="matrix(1.506926 0 0 1.506926 1024.999746 608.677493) translate(0 0)"></path><path d="M368.20092 53.22145L406.79789 -76.92563L396.20726 -90.81113L441.39395 -90.81113L435.74561 -70.33591L469.87098 53.22145L485.63925 73.93202L440.45256 73.93202L446.10090 53.22145L412.44623 -68.68848L375.96739 53.22145L381.14503 73.93202L351.72661 73.93202ZM424.44894 32.74623L411.26949 51.33867L398.09004 32.74623L411.26949 14.15379Z" fill="rgb(164,122,47)" fill-opacity="1.00" transform="matrix(1.506926 0 0 1.506926 1024.999746 608.677493) translate(0 0)"></path></g></g>
<g style="" id="c5416d50-b75b-49e7-8050-c826910a8b4f">
<g style=""><path d="M-321.13165 70.87254Q-312.42379 70.63720 -308.06987 69.81348Q-303.71594 68.98976 -303.00989 66.40094L-303.00989 -83.28006Q-303.48059 -85.63354 -306.89313 -86.45725Q-310.30567 -87.28097 -315.71866 -87.51632Q-321.13165 -87.75167 -326.54464 -87.75167L-326.54464 -90.81118L-288.88905 -90.57584L-288.88905 -72.92477Q-283.47605 -81.16194 -274.53285 -85.86889Q-265.58964 -90.57584 -253.35157 -90.81118Q-240.40746 -90.81118 -229.46380 -85.39819Q-218.52015 -79.98520 -212.04809 -70.68897Q-205.57603 -61.39275 -205.57603 -50.56676Q-205.57603 -38.09334 -213.81320 -27.97340Q-222.05036 -17.85346 -235.46516 -13.38186Q-217.57876 -9.61630 -205.92905 2.73944Q-194.27935 15.09519 -194.27935 31.09882Q-194.27935 43.33689 -201.45745 53.10381Q-208.63555 62.87073 -220.87362 68.40139Q-233.11169 73.93206 -247.93858 73.93206L-326.54464 73.93206L-326.54464 71.10789ZM-288.88905 66.87164Q-287.00627 71.34324 -267.23708 71.34324L-257.11713 71.10789Q-254.76366 70.87254 -252.41018 70.87254Q-240.64281 70.63720 -230.64054 65.45955Q-220.63827 60.28191 -214.87226 51.33870Q-209.10625 42.39550 -209.10625 31.09882Q-209.10625 19.80214 -214.87226 10.38824Q-220.63827 0.97434 -230.52287 -4.67400Q-240.40746 -10.32234 -251.93949 -10.32234L-253.82227 -10.32234Q-269.82590 -10.08699 -279.00445 0.85666Q-288.18300 11.80032 -288.88905 28.51000L-288.88905 66.87164ZM-288.88905 7.32872Q-283.71140 -2.08518 -274.06215 -7.85119Q-264.41291 -13.61721 -251.46879 -14.55860Q-237.34794 -16.44138 -228.05172 -26.67899Q-218.75549 -36.91661 -218.75549 -50.56676Q-218.75549 -60.45136 -223.93314 -68.80619Q-229.11078 -77.16103 -237.93631 -82.10333Q-246.76184 -87.04562 -257.35248 -87.04562Q-270.06125 -87.04562 -278.29841 -79.74985Q-286.53557 -72.45408 -288.88905 -60.45136L-288.88905 7.32872Z" fill="rgb(164,122,47)" fill-opacity="1.00" transform="matrix(1.119978 0 0 1.119978 1024.99986 957.980396) translate(0 0)"></path><path d="M-160.86001 -63.27553Q-160.86001 -66.57039 -158.38886 -68.80619Q-155.91771 -71.04199 -152.38750 -71.04199Q-149.09264 -71.04199 -146.62149 -68.68852Q-144.15034 -66.33504 -144.15034 -63.27553Q-144.15034 -60.21601 -146.62149 -57.86253Q-149.09264 -55.50906 -152.38750 -55.50906Q-155.91771 -55.50906 -158.38886 -57.74486Q-160.86001 -59.98066 -160.86001 -63.27553ZM-144.85638 66.40094Q-144.38569 68.75442 -142.62058 69.69581Q-140.85547 70.63720 -137.08991 70.75487Q-133.32435 70.87254 -128.38206 71.10789L-128.38206 73.93206L-175.21621 73.93206L-175.21621 71.10789Q-170.50926 70.87254 -166.74370 70.75487Q-162.97814 70.63720 -161.21303 69.93115Q-159.44793 69.22511 -158.97723 67.10698L-158.97723 -33.38640Q-159.68327 -35.03383 -161.33071 -35.03383Q-162.50744 -35.03383 -164.86092 -34.09244Q-167.21439 -33.15105 -170.03856 -31.73896L-175.21621 -29.15014L-175.21621 -32.20966L-144.85638 -47.27190L-144.85638 66.40094Z" fill="rgb(164,122,47)" fill-opacity="1.00" transform="matrix(1.119978 0 0 1.119978 1024.99986 957.980396) translate(0 0)"></path><path d="M-100.61105 -63.27553Q-100.61105 -66.57039 -98.13990 -68.80619Q-95.66876 -71.04199 -92.13854 -71.04199Q-88.60833 -71.04199 -86.25486 -68.80619Q-83.90138 -66.57039 -83.90138 -63.27553Q-83.90138 -59.98066 -86.25486 -57.74486Q-88.60833 -55.50906 -92.13854 -55.50906Q-95.66876 -55.50906 -98.13990 -57.74486Q-100.61105 -59.98066 -100.61105 -63.27553ZM-83.90138 78.63901Q-83.90138 88.99430 -88.96135 97.34914Q-94.02132 105.70397 -102.61151 110.41092Q-111.20169 115.11787 -121.55698 115.11787Q-128.38206 115.11787 -138.50200 112.76440L-138.50200 82.87527L-134.97179 82.87527L-133.55970 106.41001Q-125.32254 111.35231 -118.49746 111.35231Q-110.96634 111.35231 -106.37707 105.70397Q-101.78779 100.05563 -99.78734 92.40684Q-97.78688 84.75805 -98.02223 78.16832L-98.02223 -33.38640Q-98.72827 -35.03383 -100.14036 -35.03383Q-102.02314 -35.03383 -109.55426 -31.50362L-114.26121 -29.15014L-114.26121 -32.20966L-83.90138 -47.27190L-83.90138 78.63901Z" fill="rgb(164,122,47)" fill-opacity="1.00" transform="matrix(1.119978 0 0 1.119978 1024.99986 957.980396) translate(0 0)"></path><path d="M-52.36482 12.27102Q-52.36482 -3.96796 -44.59835 -18.32416Q-36.83188 -32.68035 -23.29940 -41.38821Q-9.76692 -50.09607 6.70740 -50.09607Q23.18173 -50.09607 36.83188 -41.50588Q50.48204 -32.91570 58.24850 -18.55950Q66.01497 -4.20331 66.01497 12.27102Q66.01497 29.21604 58.01316 43.45456Q50.01134 57.69308 36.36119 66.04792Q22.71103 74.40276 6.70740 74.40276Q-9.29623 74.40276 -22.82871 66.04792Q-36.36119 57.69308 -44.36300 43.45456Q-52.36482 29.21604 -52.36482 12.27102ZM6.70740 -46.09516Q-5.29532 -46.09516 -15.41526 -38.21102Q-25.53520 -30.32688 -31.53656 -16.91207Q-37.53792 -3.49726 -37.53792 12.27102Q-37.53792 28.03930 -31.53656 41.45411Q-25.53520 54.86891 -15.41526 62.75306Q-5.29532 70.63720 6.70740 70.63720Q18.94547 70.63720 29.06542 62.75306Q39.18536 54.86891 45.18672 41.45411Q51.18808 28.03930 51.18808 12.27102Q51.18808 -1.14379 46.01043 -14.67627Q40.83279 -28.20875 30.71285 -37.15195Q20.59291 -46.09516 6.70740 -46.09516Z" fill="rgb(164,122,47)" fill-opacity="1.00" transform="matrix(1.119978 0 0 1.119978 1024.99986 957.980396) translate(0 0)"></path><path d="M113.55516 -48.91933L113.55516 38.15924Q114.49655 54.39822 121.08628 62.87073Q127.67601 71.34324 137.32526 71.34324Q146.26847 71.34324 154.74098 63.92979Q163.21349 56.51635 167.44974 43.33689L167.44974 -42.32960Q166.74370 -44.91842 163.91953 -45.38912Q161.09536 -45.85981 151.44611 -46.09516L151.44611 -48.91933L181.57059 -48.91933L181.57059 67.10698Q182.27663 69.22511 184.04174 69.93115Q185.80684 70.63720 189.45473 70.75487Q193.10262 70.87254 197.80957 71.10789L197.80957 73.93206L167.44974 73.93206L167.44974 57.22239Q162.74279 64.04747 154.50563 69.10744Q146.26847 74.16741 138.73735 74.40276Q128.61740 74.40276 119.79187 70.04883Q110.96634 65.69490 105.43568 57.69308Q99.90501 49.69127 99.43431 39.57133L99.43431 -41.62356Q98.96362 -43.97703 97.19851 -44.91842Q95.43341 -45.85981 91.66785 -45.97749Q87.90229 -46.09516 83.19534 -46.09516L83.19534 -48.91933Z" fill="rgb(164,122,47)" fill-opacity="1.00" transform="matrix(1.119978 0 0 1.119978 1024.99986 957.980396) translate(0 0)"></path><path d="M215.46063 71.10789Q220.16758 71.10789 224.05081 70.87254Q227.93405 70.63720 229.34613 69.93115L264.41291 11.80032L231.22891 -45.15377Q229.58148 -45.85981 226.05127 -45.97749Q222.52105 -46.09516 218.04945 -46.09516L218.04945 -48.91933L260.64735 -48.91933L260.64735 -46.09516Q257.35248 -46.09516 255.94040 -45.85981Q248.87997 -45.85981 246.99719 -45.15377L272.41472 -1.37914L297.59690 -43.03564Q296.42017 -45.15377 293.94902 -45.50679Q291.47787 -45.85981 281.59327 -46.09516L281.59327 -48.91933L318.07213 -48.91933L318.07213 -46.09516Q312.89449 -46.09516 309.01126 -45.85981Q305.12802 -45.62446 303.48059 -44.44773L275.00354 2.62177L300.42107 46.63175Q307.01080 57.92843 312.89449 67.10698Q314.30657 68.75442 315.48331 70.40185Q316.89540 70.63720 327.25069 71.10789L327.25069 73.93206L284.65279 73.93206L284.65279 71.10789Q289.12439 71.10789 292.88995 70.87254Q296.65551 70.63720 298.30294 69.93115L266.76638 16.03658L235.70051 67.57768Q236.64190 69.69581 238.87770 70.16650Q241.11350 70.63720 246.76184 70.87254L251.70414 71.10789L251.70414 73.93206L215.46063 73.93206L215.46063 71.10789Z" fill="rgb(164,122,47)" fill-opacity="1.00" transform="matrix(1.119978 0 0 1.119978 1024.99986 957.980396) translate(0 0)"></path></g></g>
<g style="" id="3e4222dc-289f-4a9e-be26-4252642b45d5">
<g style=""><path d="M-289.51805 16.88761Q-289.55320 16.95792 -289.93992 17.48527Q-290.32664 18.01261 -291.04734 18.76847Q-291.76805 19.52433 -292.84031 20.38566Q-293.91258 21.24699 -295.37156 21.96769Q-296.83055 22.68839 -298.65867 23.18058Q-300.48680 23.67277 -302.70164 23.67277Q-306.14695 23.67277 -309.17039 22.81144Q-312.19383 21.95011 -314.98875 20.61417Q-317.78367 19.27824 -320.49070 17.66105Q-323.19773 16.04386 -326.01023 14.49699Q-327.73289 17.37980 -329.96531 19.19035Q-332.19773 21.00089 -334.60594 22.02042Q-337.01414 23.03995 -339.38719 23.40910Q-341.76023 23.77824 -343.76414 23.77824Q-345.69773 23.77824 -347.68406 23.37394Q-349.67039 22.96964 -351.27000 22.03800Q-352.86961 21.10636 -353.88914 19.59464Q-354.90867 18.08292 -354.90867 15.83292Q-354.90867 13.72355 -353.94187 12.01847Q-352.97508 10.31339 -351.27000 9.11808Q-349.56492 7.92277 -347.24461 7.27238Q-344.92430 6.62199 -342.25242 6.62199Q-340.24852 6.62199 -338.26219 6.97355Q-336.27586 7.32511 -334.37742 7.92277Q-332.47898 8.52042 -330.68602 9.27628Q-328.89305 10.03214 -327.31102 10.80558Q-327.10008 10.17277 -326.94187 9.53995Q-326.78367 8.90714 -326.66062 8.15128Q-326.53758 7.39542 -326.48484 6.46378Q-326.43211 5.53214 -326.43211 4.30167Q-326.43211 3.14152 -326.48484 2.08683Q-326.53758 1.03214 -326.59031 -0.21590Q-326.64305 -1.46395 -326.69578 -3.02840Q-326.74852 -4.59286 -326.74852 -6.77255Q-326.74852 -11.79989 -325.76414 -15.93075Q-324.77977 -20.06161 -322.84617 -23.01473Q-320.91258 -25.96786 -318.02977 -27.60262Q-315.14695 -29.23739 -311.31492 -29.23739Q-308.99461 -29.23739 -306.90281 -28.49911Q-304.81102 -27.76083 -303.21141 -26.38973Q-301.61180 -25.01864 -300.68016 -23.12020Q-299.74852 -21.22176 -299.74852 -18.90145Q-299.74852 -17.63583 -300.10008 -16.26473Q-300.45164 -14.89364 -301.06687 -13.75106Q-301.68211 -12.60848 -302.47312 -11.87020Q-303.26414 -11.13192 -304.14305 -11.13192Q-304.63523 -11.13192 -305.02195 -11.41317Q-305.40867 -11.69442 -305.40867 -12.29208Q-305.40867 -12.71395 -305.21531 -13.01278Q-305.02195 -13.31161 -304.74070 -13.55770Q-303.72117 -14.47176 -303.07078 -15.80770Q-302.42039 -17.14364 -302.42039 -18.90145Q-302.42039 -20.65926 -303.14109 -22.08309Q-303.86180 -23.50692 -305.07469 -24.50887Q-306.28758 -25.51083 -307.88719 -26.05575Q-309.48680 -26.60067 -311.24461 -26.60067Q-314.54930 -26.60067 -316.97508 -25.15926Q-319.40086 -23.71786 -320.98289 -21.09872Q-322.56492 -18.47958 -323.32078 -14.77059Q-324.07664 -11.06161 -324.07664 -6.52645Q-324.07664 -4.34676 -324.02391 -2.69442Q-323.97117 -1.04208 -323.91844 0.32902Q-323.86570 1.70011 -323.81297 2.91300Q-323.76023 4.12589 -323.76023 5.39152Q-323.76023 6.12980 -323.83055 6.99113Q-323.90086 7.85245 -324.04148 8.74894Q-324.18211 9.64542 -324.41062 10.50675Q-324.63914 11.36808 -324.92039 12.07120Q-322.24852 13.47745 -319.64695 15.05949Q-317.04539 16.64152 -314.35594 17.95988Q-311.66648 19.27824 -308.80125 20.13956Q-305.93602 21.00089 -302.73680 21.00089Q-299.92430 21.00089 -297.86766 20.15714Q-295.81102 19.31339 -294.45750 18.27628Q-293.10398 17.23917 -292.43602 16.37785Q-291.76805 15.51652 -291.76805 15.48136Q-291.38133 14.84855 -290.64305 14.84855Q-290.04539 14.84855 -289.67625 15.27042Q-289.30711 15.69230 -289.30711 16.18449Q-289.30711 16.57120 -289.51805 16.88761ZM-328.33055 13.19620Q-329.84227 12.45792 -331.51219 11.73722Q-333.18211 11.01652 -334.93992 10.45402Q-336.69773 9.89152 -338.54344 9.55753Q-340.38914 9.22355 -342.21727 9.22355Q-344.29148 9.22355 -346.11961 9.66300Q-347.94773 10.10245 -349.31883 10.94620Q-350.68992 11.78995 -351.48094 12.98527Q-352.27195 14.18058 -352.27195 15.69230Q-352.27195 17.09855 -351.56883 18.13566Q-350.86570 19.17277 -349.68797 19.85831Q-348.51023 20.54386 -346.96336 20.87785Q-345.41648 21.21183 -343.72898 21.21183Q-341.68992 21.21183 -339.51023 20.87785Q-337.33055 20.54386 -335.29148 19.64738Q-333.25242 18.75089 -331.45945 17.18644Q-329.66648 15.62199 -328.33055 13.19620Z" fill="rgb(90,58,41)" fill-opacity="1.00" transform="matrix(2.436138 0 0 2.436138 1025.000148 1249.616307) translate(0 0)"></path><path d="M-280.14258 -18.58505Q-280.21289 -18.09286 -280.59961 -17.75887Q-280.98633 -17.42489 -281.47852 -17.42489Q-281.97070 -17.42489 -282.37500 -17.81161Q-282.77930 -18.19833 -282.77930 -18.79598Q-282.77930 -18.93661 -282.76172 -19.09481Q-282.74414 -19.25301 -282.70898 -19.49911L-281.83008 -26.81161Q-281.75977 -27.33895 -281.37305 -27.65536Q-280.98633 -27.97176 -280.49414 -27.97176Q-279.89648 -27.97176 -279.54492 -27.56747Q-279.19336 -27.16317 -279.19336 -26.63583Q-279.19336 -26.49520 -279.24609 -26.02059Q-279.29883 -25.54598 -279.33398 -25.29989Z" fill="rgb(90,58,41)" fill-opacity="1.00" transform="matrix(2.436138 0 0 2.436138 1025.000148 1249.616307) translate(0 0)"></path><path d="M-268.51711 18.75089Q-267.77883 19.77042 -266.61867 20.38566Q-265.45852 21.00089 -263.77102 21.00089Q-262.04836 21.00089 -260.64211 20.17472Q-259.23586 19.34855 -258.07570 18.01261Q-256.91555 16.67667 -256.00148 15.02433Q-255.08742 13.37199 -254.34914 11.71964Q-254.17336 11.33292 -253.85695 11.13956Q-253.54055 10.94620 -253.15383 10.94620Q-252.55617 10.94620 -252.18703 11.36808Q-251.81789 11.78995 -251.81789 12.28214Q-251.81789 12.45792 -251.85305 12.58097Q-251.88820 12.70402 -251.95852 12.84464Q-254.38430 18.18839 -257.24953 20.89542Q-260.11477 23.60245 -263.73586 23.67277Q-266.05617 23.67277 -267.74367 22.77628Q-269.43117 21.87980 -270.52102 20.45597Q-271.61086 19.03214 -272.13820 17.23917Q-272.66555 15.44620 -272.66555 13.65324Q-272.66555 11.86027 -272.22609 10.34855Q-271.78664 8.83683 -270.96047 7.71183Q-270.13430 6.58683 -268.99172 5.95402Q-267.84914 5.32120 -266.47805 5.32120Q-265.66945 5.32120 -264.87844 5.65519Q-264.08742 5.98917 -263.45461 6.60441Q-262.82180 7.21964 -262.43508 8.09855Q-262.04836 8.97745 -262.04836 10.10245Q-262.04836 11.54386 -262.54055 12.80949Q-263.03273 14.07511 -263.89406 15.16495Q-264.75539 16.25480 -265.95070 17.16886Q-267.14602 18.08292 -268.51711 18.75089ZM-269.57180 16.46574Q-268.48195 16.00870 -267.58547 15.30558Q-266.68898 14.60245 -266.05617 13.75870Q-265.42336 12.91495 -265.07180 11.98331Q-264.72023 11.05167 -264.72023 10.10245Q-264.72023 9.04777 -265.24758 8.50285Q-265.77492 7.95792 -266.47805 7.95792Q-267.42727 7.95792 -268.09523 8.48527Q-268.76320 9.01261 -269.18508 9.85636Q-269.60695 10.70011 -269.80031 11.73722Q-269.99367 12.77433 -269.99367 13.79386Q-269.99367 14.42667 -269.87062 15.12980Q-269.74758 15.83292 -269.57180 16.46574ZM-268.23586 -0.12801L-262.61086 -5.47176Q-262.25930 -5.78817 -261.80227 -5.78817Q-261.34523 -5.78817 -260.99367 -5.43661Q-260.64211 -5.08505 -260.64211 -4.59286Q-260.64211 -4.10067 -260.99367 -3.78426L-266.61867 1.55949Q-267.00539 1.87589 -267.42727 1.87589Q-267.91945 1.87589 -268.25344 1.52433Q-268.58742 1.17277 -268.58742 0.71574Q-268.58742 0.22355 -268.23586 -0.12801Z" fill="rgb(90,58,41)" fill-opacity="1.00" transform="matrix(2.436138 0 0 2.436138 1025.000148 1249.616307) translate(0 0)"></path><path d="M-231.82523 12.87980Q-232.21195 13.68839 -232.79203 14.79581Q-233.37211 15.90324 -234.11039 17.09855Q-234.84867 18.29386 -235.76273 19.47160Q-236.67680 20.64933 -237.74906 21.58097Q-238.82133 22.51261 -240.03422 23.09269Q-241.24711 23.67277 -242.61820 23.67277Q-244.72758 23.67277 -246.23930 22.37199Q-247.75102 21.07120 -248.80570 18.96183Q-249.86039 16.85245 -250.51078 14.16300Q-251.16117 11.47355 -251.51273 8.67863Q-251.86430 5.88370 -251.98734 3.24699Q-252.11039 0.61027 -252.11039 -1.42880Q-252.11039 -4.38192 -251.91703 -7.54598Q-251.72367 -10.71005 -251.30180 -13.73348Q-250.87992 -16.75692 -250.22953 -19.46395Q-249.57914 -22.17098 -248.68266 -24.21005Q-247.78617 -26.24911 -246.62602 -27.44442Q-245.46586 -28.63973 -243.98930 -28.63973Q-242.82914 -28.63973 -241.89750 -28.09481Q-240.96586 -27.54989 -240.33305 -26.31942Q-239.70023 -25.08895 -239.34867 -23.12020Q-238.99711 -21.15145 -238.99711 -18.30380Q-238.99711 -14.78817 -239.73539 -11.04403Q-240.47367 -7.29989 -241.73930 -3.50301Q-243.00492 0.29386 -244.72758 4.07316Q-246.45023 7.85245 -248.41898 11.43839Q-247.54008 15.90324 -246.06352 18.45206Q-244.58695 21.00089 -242.51273 21.00089Q-241.10648 21.00089 -239.80570 19.89347Q-238.50492 18.78605 -237.41508 17.27433Q-236.32523 15.76261 -235.49906 14.19816Q-234.67289 12.63370 -234.21586 11.68449Q-234.04008 11.33292 -233.72367 11.13956Q-233.40727 10.94620 -233.02055 10.94620Q-232.42289 10.94620 -232.05375 11.36808Q-231.68461 11.78995 -231.68461 12.31730Q-231.68461 12.52824 -231.82523 12.87980ZM-249.43852 -1.25301Q-249.43852 0.99699 -249.33305 3.07120Q-249.22758 5.14542 -249.05180 7.04386Q-247.57523 4.19620 -246.23930 0.97941Q-244.90336 -2.23739 -243.88383 -5.52450Q-242.86430 -8.81161 -242.24906 -12.06356Q-241.63383 -15.31551 -241.63383 -18.26864Q-241.63383 -22.41708 -242.30180 -24.21005Q-242.96977 -26.00301 -244.09477 -26.00301Q-244.83305 -26.00301 -245.51859 -24.98348Q-246.20414 -23.96395 -246.80180 -22.20614Q-247.39945 -20.44833 -247.89164 -18.05770Q-248.38383 -15.66708 -248.71781 -12.92489Q-249.05180 -10.18270 -249.24516 -7.19442Q-249.43852 -4.20614 -249.43852 -1.25301Z" fill="rgb(90,58,41)" fill-opacity="1.00" transform="matrix(2.436138 0 0 2.436138 1025.000148 1249.616307) translate(0 0)"></path><path d="M-227.47711 18.75089Q-226.73883 19.77042 -225.57867 20.38566Q-224.41852 21.00089 -222.73102 21.00089Q-221.00836 21.00089 -219.60211 20.17472Q-218.19586 19.34855 -217.03570 18.01261Q-215.87555 16.67667 -214.96148 15.02433Q-214.04742 13.37199 -213.30914 11.71964Q-213.13336 11.33292 -212.81695 11.13956Q-212.50055 10.94620 -212.11383 10.94620Q-211.51617 10.94620 -211.14703 11.36808Q-210.77789 11.78995 -210.77789 12.28214Q-210.77789 12.45792 -210.81305 12.58097Q-210.84820 12.70402 -210.91852 12.84464Q-213.34430 18.18839 -216.20953 20.89542Q-219.07477 23.60245 -222.69586 23.67277Q-225.01617 23.67277 -226.70367 22.77628Q-228.39117 21.87980 -229.48102 20.45597Q-230.57086 19.03214 -231.09820 17.23917Q-231.62555 15.44620 -231.62555 13.65324Q-231.62555 11.86027 -231.18609 10.34855Q-230.74664 8.83683 -229.92047 7.71183Q-229.09430 6.58683 -227.95172 5.95402Q-226.80914 5.32120 -225.43805 5.32120Q-224.62945 5.32120 -223.83844 5.65519Q-223.04742 5.98917 -222.41461 6.60441Q-221.78180 7.21964 -221.39508 8.09855Q-221.00836 8.97745 -221.00836 10.10245Q-221.00836 11.54386 -221.50055 12.80949Q-221.99273 14.07511 -222.85406 15.16495Q-223.71539 16.25480 -224.91070 17.16886Q-226.10602 18.08292 -227.47711 18.75089ZM-228.53180 16.46574Q-227.44195 16.00870 -226.54547 15.30558Q-225.64898 14.60245 -225.01617 13.75870Q-224.38336 12.91495 -224.03180 11.98331Q-223.68023 11.05167 -223.68023 10.10245Q-223.68023 9.04777 -224.20758 8.50285Q-224.73492 7.95792 -225.43805 7.95792Q-226.38727 7.95792 -227.05523 8.48527Q-227.72320 9.01261 -228.14508 9.85636Q-228.56695 10.70011 -228.76031 11.73722Q-228.95367 12.77433 -228.95367 13.79386Q-228.95367 14.42667 -228.83062 15.12980Q-228.70758 15.83292 -228.53180 16.46574ZM-227.19586 -0.12801L-221.57086 -5.47176Q-221.21930 -5.78817 -220.76227 -5.78817Q-220.30523 -5.78817 -219.95367 -5.43661Q-219.60211 -5.08505 -219.60211 -4.59286Q-219.60211 -4.10067 -219.95367 -3.78426L-225.57867 1.55949Q-225.96539 1.87589 -226.38727 1.87589Q-226.87945 1.87589 -227.21344 1.52433Q-227.54742 1.17277 -227.54742 0.71574Q-227.54742 0.22355 -227.19586 -0.12801Z" fill="rgb(90,58,41)" fill-opacity="1.00" transform="matrix(2.436138 0 0 2.436138 1025.000148 1249.616307) translate(0 0)"></path><path d="M-190.78523 12.87980Q-191.17195 13.68839 -191.75203 14.79581Q-192.33211 15.90324 -193.07039 17.09855Q-193.80867 18.29386 -194.72273 19.47160Q-195.63680 20.64933 -196.70906 21.58097Q-197.78133 22.51261 -198.99422 23.09269Q-200.20711 23.67277 -201.57820 23.67277Q-203.68758 23.67277 -205.19930 22.37199Q-206.71102 21.07120 -207.76570 18.96183Q-208.82039 16.85245 -209.47078 14.16300Q-210.12117 11.47355 -210.47273 8.67863Q-210.82430 5.88370 -210.94734 3.24699Q-211.07039 0.61027 -211.07039 -1.42880Q-211.07039 -4.38192 -210.87703 -7.54598Q-210.68367 -10.71005 -210.26180 -13.73348Q-209.83992 -16.75692 -209.18953 -19.46395Q-208.53914 -22.17098 -207.64266 -24.21005Q-206.74617 -26.24911 -205.58602 -27.44442Q-204.42586 -28.63973 -202.94930 -28.63973Q-201.78914 -28.63973 -200.85750 -28.09481Q-199.92586 -27.54989 -199.29305 -26.31942Q-198.66023 -25.08895 -198.30867 -23.12020Q-197.95711 -21.15145 -197.95711 -18.30380Q-197.95711 -14.78817 -198.69539 -11.04403Q-199.43367 -7.29989 -200.69930 -3.50301Q-201.96492 0.29386 -203.68758 4.07316Q-205.41023 7.85245 -207.37898 11.43839Q-206.50008 15.90324 -205.02352 18.45206Q-203.54695 21.00089 -201.47273 21.00089Q-200.06648 21.00089 -198.76570 19.89347Q-197.46492 18.78605 -196.37508 17.27433Q-195.28523 15.76261 -194.45906 14.19816Q-193.63289 12.63370 -193.17586 11.68449Q-193.00008 11.33292 -192.68367 11.13956Q-192.36727 10.94620 -191.98055 10.94620Q-191.38289 10.94620 -191.01375 11.36808Q-190.64461 11.78995 -190.64461 12.31730Q-190.64461 12.52824 -190.78523 12.87980ZM-208.39852 -1.25301Q-208.39852 0.99699 -208.29305 3.07120Q-208.18758 5.14542 -208.01180 7.04386Q-206.53523 4.19620 -205.19930 0.97941Q-203.86336 -2.23739 -202.84383 -5.52450Q-201.82430 -8.81161 -201.20906 -12.06356Q-200.59383 -15.31551 -200.59383 -18.26864Q-200.59383 -22.41708 -201.26180 -24.21005Q-201.92977 -26.00301 -203.05477 -26.00301Q-203.79305 -26.00301 -204.47859 -24.98348Q-205.16414 -23.96395 -205.76180 -22.20614Q-206.35945 -20.44833 -206.85164 -18.05770Q-207.34383 -15.66708 -207.67781 -12.92489Q-208.01180 -10.18270 -208.20516 -7.19442Q-208.39852 -4.20614 -208.39852 -1.25301Z" fill="rgb(90,58,41)" fill-opacity="1.00" transform="matrix(2.436138 0 0 2.436138 1025.000148 1249.616307) translate(0 0)"></path><path d="M-177.92930 26.06339Q-171.31992 17.45011 -168.75352 11.75480Q-168.57773 11.36808 -168.27891 11.17472Q-167.98008 10.98136 -167.59336 10.98136Q-166.99570 10.98136 -166.60898 11.38566Q-166.22227 11.78995 -166.22227 12.31730Q-166.22227 12.56339 -166.32773 12.80949Q-167.87461 16.32511 -170.72227 20.64933Q-173.56992 24.97355 -177.92930 30.42277Q-177.92930 32.63761 -177.89414 34.85245Q-177.85898 37.06730 -177.85898 39.70402Q-177.85898 42.34074 -177.98203 44.92472Q-178.10508 47.50870 -178.42148 49.84660Q-178.73789 52.18449 -179.28281 54.17081Q-179.82773 56.15714 -180.68906 57.61613Q-181.55039 59.07511 -182.76328 59.90128Q-183.97617 60.72745 -185.62852 60.72745Q-187.98398 60.72745 -189.24961 58.93449Q-190.51523 57.14152 -190.51523 53.83683Q-190.51523 52.07902 -190.18125 50.02238Q-189.84727 47.96574 -189.21445 45.78605Q-188.58164 43.60636 -187.68516 41.37394Q-186.78867 39.14152 -185.69883 37.03214Q-184.60898 34.92277 -183.32578 32.98917Q-182.04258 31.05558 -180.60117 29.47355Q-180.56602 27.01261 -180.54844 24.58683Q-180.53086 22.16105 -180.46055 20.12199Q-181.51523 21.45792 -182.97422 22.23136Q-184.43320 23.00480 -185.87461 23.00480Q-187.10508 23.00480 -188.10703 22.53019Q-189.10898 22.05558 -189.81211 21.19425Q-190.51523 20.33292 -190.90195 19.17277Q-191.28867 18.01261 -191.28867 16.64152Q-191.28867 13.89933 -190.35703 11.80753Q-189.42539 9.71574 -187.98398 8.30949Q-186.54258 6.90324 -184.80234 6.20011Q-183.06211 5.49699 -181.44492 5.49699Q-180.35508 5.49699 -179.44102 5.77824Q-178.52695 6.05949 -177.87656 6.41105Q-177.22617 6.76261 -176.87461 7.07902Q-176.52305 7.39542 -176.48789 7.43058Q-176.10117 7.85245 -176.10117 8.37980Q-176.10117 8.90714 -176.48789 9.31144Q-176.87461 9.71574 -177.40195 9.71574Q-177.89414 9.71574 -178.35117 9.32902Q-178.49180 9.22355 -178.72031 9.03019Q-178.94883 8.83683 -179.31797 8.62589Q-179.68711 8.41495 -180.19687 8.27433Q-180.70664 8.13370 -181.40977 8.13370Q-182.46445 8.13370 -183.73008 8.60831Q-184.99570 9.08292 -186.08555 10.10245Q-187.17539 11.12199 -187.91367 12.72160Q-188.65195 14.32120 -188.65195 16.57120Q-188.65195 18.25870 -187.91367 19.29581Q-187.17539 20.33292 -185.62852 20.33292Q-184.89023 20.33292 -184.06406 19.91105Q-183.23789 19.48917 -182.46445 18.61027Q-181.69102 17.73136 -181.11094 16.39542Q-180.53086 15.05949 -180.28477 13.23136Q-180.21445 12.73917 -179.82773 12.40519Q-179.44102 12.07120 -178.91367 12.07120Q-178.31602 12.07120 -177.98203 12.49308Q-177.64805 12.91495 -177.64805 13.44230Q-177.64805 13.47745 -177.68320 14.51456Q-177.71836 15.55167 -177.75352 17.27433Q-177.78867 18.99699 -177.84141 21.26456Q-177.89414 23.53214 -177.92930 26.06339ZM-180.60117 33.76261Q-182.25352 36.04777 -183.58945 38.73722Q-184.92539 41.42667 -185.87461 44.16886Q-186.82383 46.91105 -187.33359 49.49503Q-187.84336 52.07902 -187.84336 54.11808Q-187.84336 55.41886 -187.61484 56.19230Q-187.38633 56.96574 -187.05234 57.38761Q-186.71836 57.80949 -186.31406 57.95011Q-185.90977 58.09074 -185.55820 58.09074Q-184.46836 58.09074 -183.65977 57.21183Q-182.85117 56.33292 -182.28867 54.87394Q-181.72617 53.41495 -181.37461 51.51652Q-181.02305 49.61808 -180.84727 47.59660Q-180.67148 45.57511 -180.60117 43.57120Q-180.53086 41.56730 -180.53086 39.87980Q-180.53086 38.36808 -180.53086 36.85636Q-180.53086 35.34464 -180.60117 33.76261Z" fill="rgb(90,58,41)" fill-opacity="1.00" transform="matrix(2.436138 0 0 2.436138 1025.000148 1249.616307) translate(0 0)"></path><path d="M-139.05773 12.80949Q-139.19836 13.09074 -139.63781 13.98722Q-140.07727 14.88370 -140.76281 16.04386Q-141.44836 17.20402 -142.36242 18.46964Q-143.27648 19.73527 -144.40148 20.78995Q-145.52648 21.84464 -146.82727 22.53019Q-148.12805 23.21574 -149.56945 23.21574Q-151.60852 23.21574 -152.99719 21.91495Q-154.38586 20.61417 -155.01867 18.64542Q-156.21398 20.64933 -157.86633 21.82706Q-159.51867 23.00480 -161.17102 23.00480Q-162.47180 23.00480 -163.52648 22.53019Q-164.58117 22.05558 -165.31945 21.19425Q-166.05773 20.33292 -166.46203 19.17277Q-166.86633 18.01261 -166.86633 16.64152Q-166.86633 13.89933 -165.93469 11.80753Q-165.00305 9.71574 -163.56164 8.30949Q-162.12023 6.90324 -160.38000 6.20011Q-158.63977 5.49699 -157.02258 5.49699Q-155.93273 5.49699 -155.01867 5.79581Q-154.10461 6.09464 -153.45422 6.44620Q-152.80383 6.79777 -152.45227 7.09660Q-152.10070 7.39542 -152.06555 7.43058Q-151.67883 7.88761 -151.67883 8.37980Q-151.67883 8.90714 -152.06555 9.31144Q-152.45227 9.71574 -152.97961 9.71574Q-153.54211 9.71574 -153.92883 9.32902Q-153.99914 9.25870 -154.24523 9.06535Q-154.49133 8.87199 -154.91320 8.66105Q-155.33508 8.45011 -155.91516 8.29191Q-156.49523 8.13370 -157.23352 8.13370Q-158.32336 8.13370 -159.55383 8.62589Q-160.78430 9.11808 -161.80383 10.15519Q-162.82336 11.19230 -163.50891 12.75675Q-164.19445 14.32120 -164.19445 16.46574Q-164.19445 17.13370 -164.05383 17.81925Q-163.91320 18.50480 -163.56164 19.06730Q-163.21008 19.62980 -162.61242 19.98136Q-162.01477 20.33292 -161.13586 20.33292Q-160.50305 20.33292 -159.67687 19.91105Q-158.85070 19.48917 -158.09484 18.61027Q-157.33898 17.73136 -156.72375 16.39542Q-156.10852 15.05949 -155.86242 13.23136Q-155.79211 12.73917 -155.40539 12.40519Q-155.01867 12.07120 -154.49133 12.07120Q-153.99914 12.07120 -153.63000 12.45792Q-153.26086 12.84464 -153.22570 13.33683Q-153.19055 14.00480 -153.08508 15.21769Q-152.97961 16.43058 -152.61047 17.62589Q-152.24133 18.82120 -151.50305 19.70011Q-150.76477 20.57902 -149.46398 20.57902Q-148.62023 20.57902 -147.79406 20.12199Q-146.96789 19.66495 -146.17687 18.90910Q-145.38586 18.15324 -144.66516 17.18644Q-143.94445 16.21964 -143.34680 15.23527Q-142.74914 14.25089 -142.29211 13.33683Q-141.83508 12.42277 -141.51867 11.75480Q-141.34289 11.36808 -141.00891 11.15714Q-140.67492 10.94620 -140.28820 10.94620Q-139.69055 10.94620 -139.32141 11.38566Q-138.95227 11.82511 -138.95227 12.31730Q-138.95227 12.56339 -139.05773 12.80949Z" fill="rgb(90,58,41)" fill-opacity="1.00" transform="matrix(2.436138 0 0 2.436138 1025.000148 1249.616307) translate(0 0)"></path><path d="M-131.15883 19.45402Q-130.59633 18.29386 -129.85805 16.90519Q-129.11977 15.51652 -128.27602 14.09269Q-127.43227 12.66886 -126.50062 11.26261Q-125.56898 9.85636 -124.54945 8.59074Q-123.52992 7.36027 -122.49281 6.81535Q-121.45570 6.27042 -120.54164 6.27042Q-118.71352 6.27042 -117.83461 7.60636Q-116.95570 8.94230 -116.95570 10.91105Q-116.95570 11.36808 -117.00844 12.01847Q-117.06117 12.66886 -117.11391 13.40714Q-117.16664 14.14542 -117.21937 14.90128Q-117.27211 15.65714 -117.27211 16.32511Q-117.27211 17.16886 -117.18422 17.94230Q-117.09633 18.71574 -116.85023 19.29581Q-116.60414 19.87589 -116.14711 20.20988Q-115.69008 20.54386 -114.95180 20.54386Q-113.61586 20.54386 -112.35023 19.50675Q-111.08461 18.46964 -110.01234 17.04581Q-108.94008 15.62199 -108.14906 14.14542Q-107.35805 12.66886 -106.97133 11.75480Q-106.79555 11.36808 -106.46156 11.15714Q-106.12758 10.94620 -105.74086 10.94620Q-105.14320 10.94620 -104.77406 11.38566Q-104.40492 11.82511 -104.40492 12.31730Q-104.40492 12.56339 -104.51039 12.80949Q-104.65102 13.09074 -105.07289 13.96964Q-105.49477 14.84855 -106.18031 15.99113Q-106.86586 17.13370 -107.77992 18.41691Q-108.69398 19.70011 -109.80141 20.75480Q-110.90883 21.80949 -112.19203 22.51261Q-113.47523 23.21574 -114.88148 23.21574Q-116.46352 23.21574 -117.44789 22.60050Q-118.43227 21.98527 -118.99477 20.98331Q-119.55727 19.98136 -119.75062 18.76847Q-119.94398 17.55558 -119.94398 16.32511Q-119.94398 15.79777 -119.89125 15.12980Q-119.83852 14.46183 -119.75062 13.72355Q-119.66273 12.98527 -119.61000 12.24699Q-119.55727 11.50870 -119.55727 10.84074Q-119.55727 9.71574 -119.90883 9.31144Q-120.26039 8.90714 -120.54164 8.90714Q-121.10414 8.90714 -121.82484 9.55753Q-122.54555 10.20792 -123.33656 11.26261Q-124.12758 12.31730 -124.95375 13.63566Q-125.77992 14.95402 -126.50062 16.25480Q-127.22133 17.55558 -127.83656 18.73331Q-128.45180 19.91105 -128.80336 20.68449Q-129.50648 22.16105 -130.20961 22.67081Q-130.91273 23.18058 -131.65102 23.18058Q-132.67055 23.18058 -133.28578 22.56535Q-133.90102 21.95011 -133.90102 20.82511Q-133.90102 20.57902 -133.83070 19.85831Q-133.76039 19.13761 -133.65492 18.13566Q-133.54945 17.13370 -133.44398 15.97355Q-133.33852 14.81339 -133.23305 13.67081Q-133.12758 12.52824 -133.05727 11.54386Q-132.98695 10.55949 -132.98695 9.89152Q-132.98695 9.01261 -133.05727 8.20402Q-133.12758 7.39542 -133.33852 7.21964Q-133.65492 7.32511 -134.46352 8.53800Q-135.27211 9.75089 -136.53773 12.80949Q-136.71352 13.19620 -137.06508 13.40714Q-137.41664 13.61808 -137.80336 13.61808Q-138.40102 13.61808 -138.75258 13.21378Q-139.10414 12.80949 -139.10414 12.28214Q-139.10414 12.03605 -138.99867 11.75480Q-137.41664 7.99308 -136.02797 6.21769Q-134.63930 4.44230 -133.26820 4.44230Q-132.45961 4.44230 -131.89711 4.84660Q-131.33461 5.25089 -131.00062 5.91886Q-130.66664 6.58683 -130.50844 7.39542Q-130.35023 8.20402 -130.35023 9.04777Q-130.35023 9.68058 -130.43812 11.01652Q-130.52602 12.35245 -130.66664 13.88175Q-130.80727 15.41105 -130.93031 16.92277Q-131.05336 18.43449 -131.15883 19.45402Z" fill="rgb(90,58,41)" fill-opacity="1.00" transform="matrix(2.436138 0 0 2.436138 1025.000148 1249.616307) translate(0 0)"></path><path d="M-81.42398 12.87980Q-81.63492 13.26652 -82.14469 14.28605Q-82.65445 15.30558 -83.51578 16.58878Q-84.37711 17.87199 -85.57242 19.24308Q-86.76773 20.61417 -88.31461 21.75675Q-89.86148 22.89933 -91.77750 23.63761Q-93.69352 24.37589 -95.94352 24.37589Q-97.94742 24.37589 -99.49430 23.65519Q-101.04117 22.93449 -102.13102 21.61613Q-103.22086 20.29777 -103.78336 18.50480Q-104.34586 16.71183 -104.34586 14.53214Q-104.34586 12.42277 -103.74820 10.57706Q-103.15055 8.73136 -102.11344 7.36027Q-101.07633 5.98917 -99.70523 5.19816Q-98.33414 4.40714 -96.78727 4.40714Q-95.62711 4.40714 -94.67789 4.81144Q-93.72867 5.21574 -93.07828 5.88370Q-92.42789 6.55167 -92.05875 7.36027Q-91.68961 8.16886 -91.68961 8.97745Q-91.68961 9.75089 -91.88297 10.41886Q-92.07633 11.08683 -92.37516 11.59660Q-92.67398 12.10636 -93.06070 12.40519Q-93.44742 12.70402 -93.83414 12.70402Q-94.43180 12.70402 -94.80094 12.31730Q-95.17008 11.93058 -95.17008 11.36808Q-95.17008 11.08683 -95.04703 10.87589Q-94.92398 10.66495 -94.76578 10.43644Q-94.60758 10.20792 -94.48453 9.87394Q-94.36148 9.53995 -94.36148 9.01261Q-94.36148 8.27433 -95.04703 7.67667Q-95.73258 7.07902 -96.78727 7.07902Q-97.77164 7.07902 -98.66812 7.67667Q-99.56461 8.27433 -100.23258 9.27628Q-100.90055 10.27824 -101.30484 11.63175Q-101.70914 12.98527 -101.70914 14.49699Q-101.70914 15.93839 -101.35758 17.23917Q-101.00602 18.53995 -100.30289 19.54191Q-99.59977 20.54386 -98.52750 21.14152Q-97.45523 21.73917 -95.97867 21.73917Q-94.08023 21.73917 -92.46305 21.05363Q-90.84586 20.36808 -89.50992 19.31339Q-88.17398 18.25870 -87.15445 17.01066Q-86.13492 15.76261 -85.41422 14.65519Q-84.69352 13.54777 -84.28922 12.72160Q-83.88492 11.89542 -83.81461 11.68449Q-83.67398 11.33292 -83.34000 11.13956Q-83.00602 10.94620 -82.61930 10.94620Q-82.02164 10.94620 -81.65250 11.36808Q-81.28336 11.78995 -81.28336 12.31730Q-81.28336 12.52824 -81.42398 12.87980Z" fill="rgb(90,58,41)" fill-opacity="1.00" transform="matrix(2.436138 0 0 2.436138 1025.000148 1249.616307) translate(0 0)"></path><path d="M-77.07586 18.75089Q-76.33758 19.77042 -75.17742 20.38566Q-74.01727 21.00089 -72.32977 21.00089Q-70.60711 21.00089 -69.20086 20.17472Q-67.79461 19.34855 -66.63445 18.01261Q-65.47430 16.67667 -64.56023 15.02433Q-63.64617 13.37199 -62.90789 11.71964Q-62.73211 11.33292 -62.41570 11.13956Q-62.09930 10.94620 -61.71258 10.94620Q-61.11492 10.94620 -60.74578 11.36808Q-60.37664 11.78995 -60.37664 12.28214Q-60.37664 12.45792 -60.41180 12.58097Q-60.44695 12.70402 -60.51727 12.84464Q-62.94305 18.18839 -65.80828 20.89542Q-68.67352 23.60245 -72.29461 23.67277Q-74.61492 23.67277 -76.30242 22.77628Q-77.98992 21.87980 -79.07977 20.45597Q-80.16961 19.03214 -80.69695 17.23917Q-81.22430 15.44620 -81.22430 13.65324Q-81.22430 11.86027 -80.78484 10.34855Q-80.34539 8.83683 -79.51922 7.71183Q-78.69305 6.58683 -77.55047 5.95402Q-76.40789 5.32120 -75.03680 5.32120Q-74.22820 5.32120 -73.43719 5.65519Q-72.64617 5.98917 -72.01336 6.60441Q-71.38055 7.21964 -70.99383 8.09855Q-70.60711 8.97745 -70.60711 10.10245Q-70.60711 11.54386 -71.09930 12.80949Q-71.59148 14.07511 -72.45281 15.16495Q-73.31414 16.25480 -74.50945 17.16886Q-75.70477 18.08292 -77.07586 18.75089ZM-78.13055 16.46574Q-77.04070 16.00870 -76.14422 15.30558Q-75.24773 14.60245 -74.61492 13.75870Q-73.98211 12.91495 -73.63055 11.98331Q-73.27898 11.05167 -73.27898 10.10245Q-73.27898 9.04777 -73.80633 8.50285Q-74.33367 7.95792 -75.03680 7.95792Q-75.98602 7.95792 -76.65398 8.48527Q-77.32195 9.01261 -77.74383 9.85636Q-78.16570 10.70011 -78.35906 11.73722Q-78.55242 12.77433 -78.55242 13.79386Q-78.55242 14.42667 -78.42937 15.12980Q-78.30633 15.83292 -78.13055 16.46574Z" fill="rgb(90,58,41)" fill-opacity="1.00" transform="matrix(2.436138 0 0 2.436138 1025.000148 1249.616307) translate(0 0)"></path><path d="M-14.87180 12.80949Q-15.01242 13.09074 -15.45187 13.98722Q-15.89133 14.88370 -16.57687 16.04386Q-17.26242 17.20402 -18.17648 18.46964Q-19.09055 19.73527 -20.21555 20.78995Q-21.34055 21.84464 -22.64133 22.53019Q-23.94211 23.21574 -25.38352 23.21574Q-27.42258 23.21574 -28.81125 21.91495Q-30.19992 20.61417 -30.83273 18.64542Q-32.02805 20.64933 -33.68039 21.82706Q-35.33273 23.00480 -36.98508 23.00480Q-38.28586 23.00480 -39.34055 22.53019Q-40.39523 22.05558 -41.13352 21.19425Q-41.87180 20.33292 -42.27609 19.17277Q-42.68039 18.01261 -42.68039 16.64152Q-42.68039 13.89933 -41.74875 11.80753Q-40.81711 9.71574 -39.37570 8.30949Q-37.93430 6.90324 -36.19406 6.20011Q-34.45383 5.49699 -32.83664 5.49699Q-31.74680 5.49699 -30.83273 5.79581Q-29.91867 6.09464 -29.26828 6.44620Q-28.61789 6.79777 -28.26633 7.09660Q-27.91477 7.39542 -27.87961 7.43058Q-27.49289 7.88761 -27.49289 8.37980Q-27.49289 8.90714 -27.87961 9.31144Q-28.26633 9.71574 -28.79367 9.71574Q-29.35617 9.71574 -29.74289 9.32902Q-29.81320 9.25870 -30.05930 9.06535Q-30.30539 8.87199 -30.72727 8.66105Q-31.14914 8.45011 -31.72922 8.29191Q-32.30930 8.13370 -33.04758 8.13370Q-34.13742 8.13370 -35.36789 8.62589Q-36.59836 9.11808 -37.61789 10.15519Q-38.63742 11.19230 -39.32297 12.75675Q-40.00852 14.32120 -40.00852 16.46574Q-40.00852 17.13370 -39.86789 17.81925Q-39.72727 18.50480 -39.37570 19.06730Q-39.02414 19.62980 -38.42648 19.98136Q-37.82883 20.33292 -36.94992 20.33292Q-36.31711 20.33292 -35.49094 19.91105Q-34.66477 19.48917 -33.90891 18.61027Q-33.15305 17.73136 -32.53781 16.39542Q-31.92258 15.05949 -31.67648 13.23136Q-31.60617 12.73917 -31.21945 12.40519Q-30.83273 12.07120 -30.30539 12.07120Q-29.81320 12.07120 -29.44406 12.45792Q-29.07492 12.84464 -29.03977 13.33683Q-29.00461 14.00480 -28.89914 15.21769Q-28.79367 16.43058 -28.42453 17.62589Q-28.05539 18.82120 -27.31711 19.70011Q-26.57883 20.57902 -25.27805 20.57902Q-24.43430 20.57902 -23.60812 20.12199Q-22.78195 19.66495 -21.99094 18.90910Q-21.19992 18.15324 -20.47922 17.18644Q-19.75852 16.21964 -19.16086 15.23527Q-18.56320 14.25089 -18.10617 13.33683Q-17.64914 12.42277 -17.33273 11.75480Q-17.15695 11.36808 -16.82297 11.15714Q-16.48898 10.94620 -16.10227 10.94620Q-15.50461 10.94620 -15.13547 11.38566Q-14.76633 11.82511 -14.76633 12.31730Q-14.76633 12.56339 -14.87180 12.80949ZM-31.14914 0.08292Q-30.79758 0.43449 -30.79758 0.92667Q-30.79758 1.38370 -31.13156 1.73527Q-31.46555 2.08683 -31.95773 2.08683Q-32.41477 2.08683 -32.76633 1.77042L-38.39133 -3.57333Q-38.74289 -3.88973 -38.74289 -4.38192Q-38.74289 -4.87411 -38.39133 -5.22567Q-38.03977 -5.57723 -37.58273 -5.57723Q-37.16086 -5.57723 -36.77414 -5.26083L-31.14914 0.08292Z" fill="rgb(90,58,41)" fill-opacity="1.00" transform="matrix(2.436138 0 0 2.436138 1025.000148 1249.616307) translate(0 0)"></path><path d="M21.59789 12.80949Q21.59789 16.04386 20.43773 18.32902Q19.27758 20.61417 17.59008 21.80949L17.73070 21.80949Q19.80492 21.80949 21.51000 20.87785Q23.21508 19.94620 24.58617 18.48722Q25.95727 17.02824 27.04711 15.23527Q28.13695 13.44230 28.98070 11.75480Q29.15648 11.36808 29.49047 11.15714Q29.82445 10.94620 30.21117 10.94620Q30.80883 10.94620 31.16039 11.36808Q31.51195 11.78995 31.51195 12.28214Q31.51195 12.56339 31.40648 12.80949Q30.49242 14.84855 29.22680 16.90519Q27.96117 18.96183 26.27367 20.61417Q24.58617 22.26652 22.47680 23.30363Q20.36742 24.34074 17.80102 24.34074Q15.93773 24.34074 14.17992 23.76066Q12.42211 23.18058 11.08617 21.95011Q10.59398 21.56339 10.24242 21.12394Q9.89086 20.68449 9.67992 20.29777Q9.60961 20.22745 9.60961 20.15714Q9.39867 19.84074 9.39867 19.48917Q9.39867 19.03214 9.71508 18.64542Q9.75023 18.57511 9.78539 18.55753Q9.82055 18.53995 9.85570 18.50480Q10.20727 18.18839 10.62914 18.15324L10.73461 18.15324Q10.91039 18.15324 10.98070 18.18839Q11.01586 18.18839 11.03344 18.20597Q11.05102 18.22355 11.08617 18.22355Q11.19164 18.22355 11.33227 18.29386Q11.36742 18.32902 11.40258 18.32902Q11.71898 18.53995 11.92992 18.85636Q12.17602 19.27824 12.49242 19.62980Q12.77367 19.91105 13.16039 20.13956Q13.54711 20.36808 14.03930 20.36808Q14.91820 20.36808 15.79711 19.84074Q16.67602 19.31339 17.37914 18.32902Q18.08227 17.34464 18.52172 15.93839Q18.96117 14.53214 18.96117 12.80949Q18.96117 11.54386 18.69750 10.64738Q18.43383 9.75089 18.02953 9.18839Q17.62523 8.62589 17.16820 8.36222Q16.71117 8.09855 16.28930 8.09855Q15.34008 8.09855 14.37328 9.08292Q13.40648 10.06730 12.45727 11.57902Q11.50805 13.09074 10.57641 14.91886Q9.64477 16.74699 8.69555 18.46964Q8.62523 24.16495 8.50219 29.33292Q8.37914 34.50089 8.08031 38.93058Q7.78148 43.36027 7.25414 46.94620Q6.72680 50.53214 5.81273 53.08097Q4.89867 55.62980 3.56273 57.00089Q2.22680 58.37199 0.29320 58.37199Q-0.30445 58.37199 -1.07789 58.12589Q-1.85133 57.87980 -2.51930 57.12394Q-3.18727 56.36808 -3.64430 54.96183Q-4.10133 53.55558 -4.10133 51.20011Q-4.10133 48.21183 -3.36305 44.27433Q-2.62477 40.33683 -1.27125 35.92472Q0.08227 31.51261 1.94555 26.87199Q3.80883 22.23136 6.05883 17.83683Q6.05883 16.60636 6.07641 15.41105Q6.09398 14.21574 6.09398 13.09074Q5.63695 13.61808 5.00414 13.61808Q4.40648 13.61808 4.05492 13.19620Q3.70336 12.77433 3.70336 12.28214Q3.70336 12.03605 3.80883 11.75480Q4.65258 9.82120 5.10961 8.08097Q5.56664 6.34074 5.79516 5.02238Q6.02367 3.70402 6.05883 2.93058Q6.09398 2.15714 6.09398 2.12199Q6.09398 1.59464 6.48070 1.20792Q6.86742 0.82120 7.42992 0.82120Q7.95727 0.82120 8.34398 1.19035Q8.73070 1.55949 8.73070 2.12199L8.73070 12.91495Q9.53930 11.54386 10.34789 10.20792Q11.15648 8.87199 12.05297 7.81730Q12.94945 6.76261 13.98656 6.11222Q15.02367 5.46183 16.28930 5.46183Q17.48461 5.46183 18.46898 6.02433Q19.45336 6.58683 20.15648 7.57120Q20.85961 8.55558 21.22875 9.90910Q21.59789 11.26261 21.59789 12.80949ZM5.98852 24.09464Q4.26586 27.96183 2.87719 31.86417Q1.48852 35.76652 0.52172 39.38761Q-0.44508 43.00870 -0.97242 46.17277Q-1.49977 49.33683 -1.49977 51.72745Q-1.49977 52.32511 -1.42945 53.02824Q-1.35914 53.73136 -1.14820 54.32902Q-0.93727 54.92667 -0.55055 55.33097Q-0.16383 55.73527 0.46898 55.73527Q1.62914 55.73527 2.47289 54.27628Q3.31664 52.81730 3.89672 50.33878Q4.47680 47.86027 4.86352 44.64347Q5.25023 41.42667 5.47875 37.91105Q5.70727 34.39542 5.81273 30.82706Q5.91820 27.25870 5.98852 24.09464Z" fill="rgb(90,58,41)" fill-opacity="1.00" transform="matrix(2.436138 0 0 2.436138 1025.000148 1249.616307) translate(0 0)"></path><path d="M47.70773 18.75089Q46.82883 18.75089 46.16086 18.61027Q45.63352 19.66495 44.89523 20.56144Q44.15695 21.45792 43.19016 22.12589Q42.22336 22.79386 41.02805 23.18058Q39.83273 23.56730 38.42648 23.56730Q36.77414 23.56730 35.40305 22.98722Q34.03195 22.40714 33.01242 21.37003Q31.99289 20.33292 31.43039 18.87394Q30.86789 17.41495 30.86789 15.65714Q30.86789 13.40714 31.67648 11.73722Q32.48508 10.06730 33.53977 8.95988Q34.59445 7.85245 35.64914 7.30753Q36.70383 6.76261 37.23117 6.76261Q37.82883 6.76261 38.12766 7.07902Q38.42648 7.39542 38.42648 7.92277Q38.42648 8.52042 38.05734 8.81925Q37.68820 9.11808 37.12570 9.39933Q36.56320 9.68058 35.93039 10.19035Q35.29758 10.70011 34.75266 11.47355Q34.20773 12.24699 33.85617 13.30167Q33.50461 14.35636 33.50461 15.65714Q33.50461 16.81730 33.85617 17.81925Q34.20773 18.82120 34.87570 19.54191Q35.54367 20.26261 36.45773 20.66691Q37.37180 21.07120 38.49680 21.07120Q40.50070 21.07120 41.81906 20.13956Q43.13742 19.20792 43.84055 17.76652Q41.76633 16.67667 40.43039 14.67277Q39.09445 12.66886 39.09445 10.17277Q39.09445 8.16886 40.06125 6.90324Q41.02805 5.63761 42.61008 5.63761Q43.55930 5.63761 44.40305 6.09464Q45.24680 6.55167 45.89719 7.53605Q46.54758 8.52042 46.93430 10.06730Q47.32102 11.61417 47.32102 13.75870Q47.32102 14.88370 47.03977 16.11417Q47.25070 16.14933 47.46164 16.14933Q47.67258 16.14933 47.91867 16.14933Q49.11398 16.14933 50.06320 15.86808Q51.01242 15.58683 51.78586 15.02433Q52.55930 14.46183 53.17453 13.58292Q53.78977 12.70402 54.35227 11.54386Q54.45773 11.33292 54.80930 11.13956Q55.16086 10.94620 55.51242 10.94620Q55.96945 10.94620 56.37375 11.31535Q56.77805 11.68449 56.77805 12.28214Q56.77805 12.56339 56.63742 12.89738Q56.49680 13.23136 56.35617 13.51261Q55.75852 14.56730 54.96750 15.53410Q54.17648 16.50089 53.10422 17.22160Q52.03195 17.94230 50.69602 18.36417Q49.36008 18.78605 47.70773 18.75089ZM41.69602 9.89152Q41.69602 10.55949 41.87180 11.29777Q42.04758 12.03605 42.41672 12.75675Q42.78586 13.47745 43.33078 14.12785Q43.87570 14.77824 44.61398 15.23527Q44.71945 14.49699 44.71945 13.79386Q44.71945 12.84464 44.57883 11.86027Q44.43820 10.87589 44.17453 10.04972Q43.91086 9.22355 43.52414 8.71378Q43.13742 8.20402 42.61008 8.20402Q42.39914 8.20402 42.04758 8.52042Q41.69602 8.83683 41.69602 9.89152Z" fill="rgb(90,58,41)" fill-opacity="1.00" transform="matrix(2.436138 0 0 2.436138 1025.000148 1249.616307) translate(0 0)"></path><path d="M60.45820 8.16886Q60.31758 9.11808 60.10664 9.94425Q59.89570 10.77042 59.70234 11.38566Q59.50898 12.00089 59.36836 12.38761Q59.22773 12.77433 59.19258 12.80949Q58.84102 13.61808 57.96211 13.61808Q57.46992 13.61808 57.04805 13.24894Q56.62617 12.87980 56.62617 12.31730Q56.62617 12.10636 56.69648 12.00089Q56.76680 11.89542 56.90742 11.57902Q57.04805 11.26261 57.25898 10.52433Q57.46992 9.78605 57.78633 8.23917Q57.18867 8.23917 56.55586 8.20402Q55.92305 8.16886 55.37813 7.95792Q54.83320 7.74699 54.48164 7.28995Q54.13008 6.83292 54.13008 6.02433Q54.13008 5.42667 54.46406 4.40714Q54.79805 3.38761 55.36055 2.40324Q55.92305 1.41886 56.62617 0.69816Q57.32930 -0.02255 58.03242 -0.02255Q58.84102 -0.02255 59.35078 0.57511Q59.86055 1.17277 60.14180 2.03410Q60.42305 2.89542 60.54609 3.84464Q60.66914 4.79386 60.66914 5.49699Q61.26680 5.49699 61.84688 5.47941Q62.42695 5.46183 62.95430 5.46183Q64.95820 5.46183 66.01289 6.34074Q67.06758 7.21964 67.06758 9.22355Q67.06758 10.03214 66.96211 10.91105Q66.85664 11.78995 66.71602 12.72160Q66.57539 13.65324 66.46992 14.56730Q66.36445 15.48136 66.36445 16.36027Q66.36445 17.62589 66.71602 18.45206Q67.06758 19.27824 67.59492 19.77042Q68.12227 20.26261 68.71992 20.45597Q69.31758 20.64933 69.80977 20.64933Q71.32148 20.64933 72.65742 19.66495Q73.99336 18.68058 75.11836 17.29191Q76.24336 15.90324 77.13984 14.35636Q78.03633 12.80949 78.63398 11.64933Q78.80977 11.33292 79.12617 11.15714Q79.44258 10.98136 79.79414 10.98136Q80.42695 10.98136 80.77852 11.38566Q81.13008 11.78995 81.13008 12.28214Q81.13008 12.63370 80.98945 12.91495Q80.18086 14.35636 79.10859 16.16691Q78.03633 17.97745 76.66523 19.55949Q75.29414 21.14152 73.58906 22.23136Q71.88398 23.32120 69.84492 23.32120Q68.57930 23.32120 67.45430 22.84660Q66.32930 22.37199 65.50313 21.47550Q64.67695 20.57902 64.18477 19.26066Q63.69258 17.94230 63.69258 16.28995Q63.69258 14.53214 64.04414 12.79191Q64.39570 11.05167 64.39570 9.46964Q64.39570 8.80167 64.09688 8.46769Q63.79805 8.13370 62.77852 8.13370Q62.28633 8.13370 61.70625 8.13370Q61.12617 8.13370 60.45820 8.16886ZM58.10273 5.56730Q58.10273 5.32120 58.08516 4.91691Q58.06758 4.51261 58.01484 4.12589Q57.96211 3.73917 57.87422 3.45792Q57.78633 3.17667 57.68086 3.17667Q57.57539 3.17667 57.41719 3.44035Q57.25898 3.70402 57.08320 4.07316Q56.90742 4.44230 56.76680 4.86417Q56.62617 5.28605 56.55586 5.56730Z" fill="rgb(90,58,41)" fill-opacity="1.00" transform="matrix(2.436138 0 0 2.436138 1025.000148 1249.616307) translate(0 0)"></path><path d="M109.59539 -12.57333Q109.59539 -12.01083 109.20867 -11.67684Q108.82195 -11.34286 108.25945 -11.34286L90.43523 -11.34286L90.43523 -10.95614Q90.43523 -8.81161 90.11883 -6.38583Q89.80242 -3.96005 89.25750 -1.55184Q88.71258 0.85636 88.02703 3.14152Q87.34148 5.42667 86.62078 7.36027Q85.90008 9.29386 85.19695 10.71769Q84.49383 12.14152 83.93133 12.84464Q84.38836 14.46183 85.02117 15.85050Q85.65398 17.23917 86.44500 18.27628Q87.23602 19.31339 88.15008 19.91105Q89.06414 20.50870 90.11883 20.50870Q91.34930 20.50870 92.56219 19.47160Q93.77508 18.43449 94.81219 17.01066Q95.84930 15.58683 96.64031 14.12785Q97.43133 12.66886 97.78289 11.78995Q98.13445 10.94620 99.01336 10.94620Q99.61102 10.94620 99.98016 11.36808Q100.34930 11.78995 100.34930 12.28214Q100.34930 12.52824 100.24383 12.77433Q100.13836 13.02042 99.73406 13.89933Q99.32977 14.77824 98.67938 15.93839Q98.02898 17.09855 97.16766 18.38175Q96.30633 19.66495 95.23406 20.71964Q94.16180 21.77433 92.93133 22.47745Q91.70086 23.18058 90.32977 23.18058Q87.90398 23.18058 85.97039 21.59855Q84.03680 20.01652 82.68328 17.16886Q81.32977 14.32120 80.62664 10.41886Q79.92352 6.51652 79.92352 1.87589Q79.92352 0.71574 79.95867 -0.84872Q79.99383 -2.41317 80.09930 -4.15340Q80.20477 -5.89364 80.41570 -7.73934Q80.62664 -9.58505 80.97820 -11.34286L68.35711 -11.34286Q67.79461 -11.34286 67.40789 -11.67684Q67.02117 -12.01083 67.02117 -12.57333Q67.02117 -13.13583 67.40789 -13.46981Q67.79461 -13.80380 68.35711 -13.80380L81.57586 -13.80380Q81.92742 -15.06942 82.40203 -16.12411Q82.87664 -17.17880 83.49188 -17.95223Q84.10711 -18.72567 84.86297 -19.16512Q85.61883 -19.60458 86.53289 -19.60458Q87.41180 -19.60458 88.06219 -19.16512Q88.71258 -18.72567 89.16961 -17.95223Q89.62664 -17.17880 89.89031 -16.12411Q90.15398 -15.06942 90.29461 -13.80380L108.25945 -13.80380Q108.82195 -13.80380 109.20867 -13.46981Q109.59539 -13.13583 109.59539 -12.57333ZM83.12273 9.32902Q84.17742 7.00870 85.03875 4.31925Q85.90008 1.62980 86.51531 -1.11239Q87.13055 -3.85458 87.46453 -6.49130Q87.79852 -9.12801 87.79852 -11.34286L83.65008 -11.34286Q83.15789 -9.16317 82.85906 -5.94637Q82.56023 -2.72958 82.56023 1.87589Q82.56023 4.44230 82.70086 6.18253Q82.84148 7.92277 83.12273 9.32902ZM86.39227 -16.96786Q86.07586 -16.96786 85.47820 -16.28231Q84.88055 -15.59676 84.28289 -13.80380L87.65789 -13.80380Q87.48211 -15.28036 87.14813 -16.12411Q86.81414 -16.96786 86.39227 -16.96786ZM83.68523 11.86027L83.68523 11.89542Z" fill="rgb(90,58,41)" fill-opacity="1.00" transform="matrix(2.436138 0 0 2.436138 1025.000148 1249.616307) translate(0 0)"></path><path d="M104.66227 18.75089Q105.40055 19.77042 106.56070 20.38566Q107.72086 21.00089 109.40836 21.00089Q111.13102 21.00089 112.53727 20.17472Q113.94352 19.34855 115.10367 18.01261Q116.26383 16.67667 117.17789 15.02433Q118.09195 13.37199 118.83023 11.71964Q119.00602 11.33292 119.32242 11.13956Q119.63883 10.94620 120.02555 10.94620Q120.62320 10.94620 120.99234 11.36808Q121.36148 11.78995 121.36148 12.28214Q121.36148 12.45792 121.32633 12.58097Q121.29117 12.70402 121.22086 12.84464Q118.79508 18.18839 115.92984 20.89542Q113.06461 23.60245 109.44352 23.67277Q107.12320 23.67277 105.43570 22.77628Q103.74820 21.87980 102.65836 20.45597Q101.56852 19.03214 101.04117 17.23917Q100.51383 15.44620 100.51383 13.65324Q100.51383 11.86027 100.95328 10.34855Q101.39273 8.83683 102.21891 7.71183Q103.04508 6.58683 104.18766 5.95402Q105.33023 5.32120 106.70133 5.32120Q107.50992 5.32120 108.30094 5.65519Q109.09195 5.98917 109.72477 6.60441Q110.35758 7.21964 110.74430 8.09855Q111.13102 8.97745 111.13102 10.10245Q111.13102 11.54386 110.63883 12.80949Q110.14664 14.07511 109.28531 15.16495Q108.42398 16.25480 107.22867 17.16886Q106.03336 18.08292 104.66227 18.75089ZM103.60758 16.46574Q104.69742 16.00870 105.59391 15.30558Q106.49039 14.60245 107.12320 13.75870Q107.75602 12.91495 108.10758 11.98331Q108.45914 11.05167 108.45914 10.10245Q108.45914 9.04777 107.93180 8.50285Q107.40445 7.95792 106.70133 7.95792Q105.75211 7.95792 105.08414 8.48527Q104.41617 9.01261 103.99430 9.85636Q103.57242 10.70011 103.37906 11.73722Q103.18570 12.77433 103.18570 13.79386Q103.18570 14.42667 103.30875 15.12980Q103.43180 15.83292 103.60758 16.46574ZM104.94352 -0.12801L110.56852 -5.47176Q110.92008 -5.78817 111.37711 -5.78817Q111.83414 -5.78817 112.18570 -5.43661Q112.53727 -5.08505 112.53727 -4.59286Q112.53727 -4.10067 112.18570 -3.78426L106.56070 1.55949Q106.17398 1.87589 105.75211 1.87589Q105.25992 1.87589 104.92594 1.52433Q104.59195 1.17277 104.59195 0.71574Q104.59195 0.22355 104.94352 -0.12801Z" fill="rgb(90,58,41)" fill-opacity="1.00" transform="matrix(2.436138 0 0 2.436138 1025.000148 1249.616307) translate(0 0)"></path><path d="M125.56898 18.75089Q126.30727 19.77042 127.46742 20.38566Q128.62758 21.00089 130.31508 21.00089Q132.03773 21.00089 133.44398 20.17472Q134.85023 19.34855 136.01039 18.01261Q137.17055 16.67667 138.08461 15.02433Q138.99867 13.37199 139.73695 11.71964Q139.91273 11.33292 140.22914 11.13956Q140.54555 10.94620 140.93227 10.94620Q141.52992 10.94620 141.89906 11.36808Q142.26820 11.78995 142.26820 12.28214Q142.26820 12.45792 142.23305 12.58097Q142.19789 12.70402 142.12758 12.84464Q139.70180 18.18839 136.83656 20.89542Q133.97133 23.60245 130.35023 23.67277Q128.02992 23.67277 126.34242 22.77628Q124.65492 21.87980 123.56508 20.45597Q122.47523 19.03214 121.94789 17.23917Q121.42055 15.44620 121.42055 13.65324Q121.42055 11.86027 121.86000 10.34855Q122.29945 8.83683 123.12563 7.71183Q123.95180 6.58683 125.09438 5.95402Q126.23695 5.32120 127.60805 5.32120Q128.41664 5.32120 129.20766 5.65519Q129.99867 5.98917 130.63148 6.60441Q131.26430 7.21964 131.65102 8.09855Q132.03773 8.97745 132.03773 10.10245Q132.03773 11.54386 131.54555 12.80949Q131.05336 14.07511 130.19203 15.16495Q129.33070 16.25480 128.13539 17.16886Q126.94008 18.08292 125.56898 18.75089ZM124.51430 16.46574Q125.60414 16.00870 126.50063 15.30558Q127.39711 14.60245 128.02992 13.75870Q128.66273 12.91495 129.01430 11.98331Q129.36586 11.05167 129.36586 10.10245Q129.36586 9.04777 128.83852 8.50285Q128.31117 7.95792 127.60805 7.95792Q126.65883 7.95792 125.99086 8.48527Q125.32289 9.01261 124.90102 9.85636Q124.47914 10.70011 124.28578 11.73722Q124.09242 12.77433 124.09242 13.79386Q124.09242 14.42667 124.21547 15.12980Q124.33852 15.83292 124.51430 16.46574Z" fill="rgb(90,58,41)" fill-opacity="1.00" transform="matrix(2.436138 0 0 2.436138 1025.000148 1249.616307) translate(0 0)"></path><path d="M174.23789 12.38761Q175.96055 20.50870 179.23008 20.50870Q180.49570 20.50870 181.65586 19.57706Q182.81602 18.64542 183.81797 17.29191Q184.81992 15.93839 185.59336 14.42667Q186.36680 12.91495 186.85898 11.78995Q187.21055 10.94620 188.08945 10.94620Q188.65195 10.94620 189.03867 11.36808Q189.42539 11.78995 189.42539 12.28214Q189.42539 12.56339 189.31992 12.77433Q189.07383 13.37199 188.59922 14.37394Q188.12461 15.37589 187.43906 16.51847Q186.75352 17.66105 185.90977 18.85636Q185.06602 20.05167 184.04648 21.00089Q183.02695 21.95011 181.88438 22.56535Q180.74180 23.18058 179.47617 23.18058Q177.12070 23.18058 175.43320 21.54581Q173.74570 19.91105 172.51523 16.14933Q170.82773 19.73527 169.10508 21.35245Q167.38242 22.96964 165.37852 22.96964Q164.32383 22.96964 163.33945 22.63566Q162.35508 22.30167 161.61680 21.52824Q160.87852 20.75480 160.42148 19.54191Q159.96445 18.32902 159.96445 16.57120Q159.96445 14.14542 160.80820 12.10636Q161.65195 10.06730 162.98789 8.60831Q164.32383 7.14933 165.95859 6.34074Q167.59336 5.53214 169.21055 5.53214Q169.73789 5.53214 170.12461 5.90128Q170.51133 6.27042 170.51133 6.83292Q170.51133 7.32511 170.19492 7.71183Q169.87852 8.09855 169.35117 8.16886Q168.29648 8.30949 167.10117 8.83683Q165.90586 9.36417 164.90391 10.36613Q163.90195 11.36808 163.25156 12.91495Q162.60117 14.46183 162.60117 16.60636Q162.60117 18.36417 163.32188 19.34855Q164.04258 20.33292 165.41367 20.33292Q165.97617 20.33292 166.60898 20.03410Q167.24180 19.73527 167.96250 18.85636Q168.68320 17.97745 169.54453 16.36027Q170.40586 14.74308 171.46055 12.10636Q170.86289 9.01261 170.37070 4.96964Q169.87852 0.92667 169.87852 -4.06551Q169.87852 -6.24520 170.01914 -8.61825Q170.15977 -10.99130 170.47617 -13.25887Q170.79258 -15.52645 171.31992 -17.56551Q171.84727 -19.60458 172.60313 -21.15145Q173.35898 -22.69833 174.37852 -23.59481Q175.39805 -24.49130 176.69883 -24.49130Q177.85898 -24.49130 178.66758 -23.85848Q179.47617 -23.22567 179.98594 -22.10067Q180.49570 -20.97567 180.74180 -19.39364Q180.98789 -17.81161 180.98789 -15.91317Q180.98789 -11.83505 180.28477 -7.75692Q179.58164 -3.67880 178.54453 0.04777Q177.50742 3.77433 176.34727 6.93839Q175.18711 10.10245 174.23789 12.38761ZM178.35117 -15.94833Q178.35117 -16.82723 178.29844 -17.84676Q178.24570 -18.86630 178.05234 -19.76278Q177.85898 -20.65926 177.54258 -21.25692Q177.22617 -21.85458 176.69883 -21.85458Q175.81992 -21.85458 175.06406 -20.30770Q174.30820 -18.76083 173.74570 -16.24715Q173.18320 -13.73348 172.84922 -10.55184Q172.51523 -7.37020 172.51523 -4.13583Q172.51523 -1.04208 172.76133 2.05167Q173.00742 5.14542 173.32383 7.57120Q174.34336 4.86417 175.25742 1.99894Q176.17148 -0.86630 176.85703 -3.85458Q177.54258 -6.84286 177.94688 -9.88387Q178.35117 -12.92489 178.35117 -15.94833Z" fill="rgb(90,58,41)" fill-opacity="1.00" transform="matrix(2.436138 0 0 2.436138 1025.000148 1249.616307) translate(0 0)"></path><path d="M193.63289 18.75089Q194.37117 19.77042 195.53133 20.38566Q196.69148 21.00089 198.37898 21.00089Q200.10164 21.00089 201.50789 20.17472Q202.91414 19.34855 204.07430 18.01261Q205.23445 16.67667 206.14852 15.02433Q207.06258 13.37199 207.80086 11.71964Q207.97664 11.33292 208.29305 11.13956Q208.60945 10.94620 208.99617 10.94620Q209.59383 10.94620 209.96297 11.36808Q210.33211 11.78995 210.33211 12.28214Q210.33211 12.45792 210.29695 12.58097Q210.26180 12.70402 210.19148 12.84464Q207.76570 18.18839 204.90047 20.89542Q202.03523 23.60245 198.41414 23.67277Q196.09383 23.67277 194.40633 22.77628Q192.71883 21.87980 191.62898 20.45597Q190.53914 19.03214 190.01180 17.23917Q189.48445 15.44620 189.48445 13.65324Q189.48445 11.86027 189.92391 10.34855Q190.36336 8.83683 191.18953 7.71183Q192.01570 6.58683 193.15828 5.95402Q194.30086 5.32120 195.67195 5.32120Q196.48055 5.32120 197.27156 5.65519Q198.06258 5.98917 198.69539 6.60441Q199.32820 7.21964 199.71492 8.09855Q200.10164 8.97745 200.10164 10.10245Q200.10164 11.54386 199.60945 12.80949Q199.11727 14.07511 198.25594 15.16495Q197.39461 16.25480 196.19930 17.16886Q195.00398 18.08292 193.63289 18.75089ZM192.57820 16.46574Q193.66805 16.00870 194.56453 15.30558Q195.46102 14.60245 196.09383 13.75870Q196.72664 12.91495 197.07820 11.98331Q197.42977 11.05167 197.42977 10.10245Q197.42977 9.04777 196.90242 8.50285Q196.37508 7.95792 195.67195 7.95792Q194.72273 7.95792 194.05477 8.48527Q193.38680 9.01261 192.96492 9.85636Q192.54305 10.70011 192.34969 11.73722Q192.15633 12.77433 192.15633 13.79386Q192.15633 14.42667 192.27938 15.12980Q192.40242 15.83292 192.57820 16.46574Z" fill="rgb(90,58,41)" fill-opacity="1.00" transform="matrix(2.436138 0 0 2.436138 1025.000148 1249.616307) translate(0 0)"></path><path d="M236.78227 19.48917Q237.30961 18.43449 238.13578 16.87003Q238.96195 15.30558 239.85844 13.72355Q240.75492 12.14152 241.61625 10.73527Q242.47758 9.32902 243.07523 8.59074Q244.09477 7.36027 245.18461 6.83292Q246.27445 6.30558 247.18852 6.30558Q248.10258 6.30558 248.75297 6.69230Q249.40336 7.07902 249.82523 7.72941Q250.24711 8.37980 250.45805 9.24113Q250.66898 10.10245 250.66898 11.08683Q250.66898 11.64933 250.61625 12.56339Q250.56352 13.47745 250.51078 14.53214Q250.45805 15.58683 250.40531 16.71183Q250.35258 17.83683 250.31742 18.82120Q250.84477 17.76652 251.51273 16.48331Q252.18070 15.20011 252.86625 13.93449Q253.55180 12.66886 254.18461 11.56144Q254.81742 10.45402 255.34477 9.75089Q256.85648 7.67667 258.17484 6.97355Q259.49320 6.27042 260.51273 6.27042Q261.70805 6.27042 262.48148 6.70988Q263.25492 7.14933 263.69438 7.83488Q264.13383 8.52042 264.30961 9.36417Q264.48539 10.20792 264.48539 10.98136Q264.48539 12.17667 264.30961 13.47745Q264.13383 14.77824 264.13383 16.57120Q264.13383 17.30949 264.20414 18.04777Q264.27445 18.78605 264.50297 19.34855Q264.73148 19.91105 265.22367 20.26261Q265.71586 20.61417 266.55961 20.61417Q267.47367 20.61417 268.35258 20.13956Q269.23148 19.66495 270.04008 18.89152Q270.84867 18.11808 271.56938 17.13370Q272.29008 16.14933 272.88773 15.16495Q273.48539 14.18058 273.94242 13.28410Q274.39945 12.38761 274.68070 11.75480Q274.85648 11.36808 275.17289 11.15714Q275.48930 10.94620 275.87602 10.94620Q276.47367 10.94620 276.84281 11.38566Q277.21195 11.82511 277.21195 12.31730Q277.21195 12.56339 277.10648 12.80949Q276.96586 13.09074 276.54398 13.98722Q276.12211 14.88370 275.41898 16.02628Q274.71586 17.16886 273.78422 18.43449Q272.85258 19.70011 271.72758 20.77238Q270.60258 21.84464 269.30180 22.53019Q268.00102 23.21574 266.55961 23.21574Q265.01273 23.21574 264.04594 22.67081Q263.07914 22.12589 262.49906 21.21183Q261.91898 20.29777 261.70805 19.10245Q261.49711 17.90714 261.49711 16.60636Q261.49711 14.88370 261.67289 13.42472Q261.84867 11.96574 261.84867 11.15714Q261.84867 10.27824 261.69047 9.82120Q261.53227 9.36417 261.30375 9.17081Q261.07523 8.97745 260.86430 8.95988Q260.65336 8.94230 260.54789 8.94230Q259.70414 8.94230 258.77250 9.87394Q257.84086 10.80558 256.85648 12.35245Q255.87211 13.89933 254.83500 15.86808Q253.79789 17.83683 252.74320 19.87589Q252.14555 21.00089 251.74125 21.73917Q251.33695 22.47745 250.96781 22.89933Q250.59867 23.32120 250.24711 23.49699Q249.89555 23.67277 249.47367 23.67277Q248.55961 23.67277 248.08500 23.03995Q247.61039 22.40714 247.61039 21.38761Q247.61039 20.86027 247.64555 19.98136Q247.68070 19.10245 247.71586 18.04777Q247.75102 16.99308 247.82133 15.86808Q247.89164 14.74308 247.92680 13.70597Q247.96195 12.66886 247.99711 11.86027Q248.03227 11.05167 248.03227 10.62980Q248.03227 9.71574 247.71586 9.31144Q247.39945 8.90714 246.97758 8.90714Q246.59086 8.90714 246.11625 9.18839Q245.64164 9.46964 245.00883 10.27824Q244.51664 10.91105 243.76078 12.12394Q243.00492 13.33683 242.16117 14.81339Q241.31742 16.28995 240.49125 17.83683Q239.66508 19.38370 239.06742 20.61417Q238.32914 22.09074 237.59086 22.63566Q236.85258 23.18058 236.14945 23.18058Q235.12992 23.18058 234.63773 22.56535Q234.14555 21.95011 234.14555 20.93058Q234.14555 20.82511 234.19828 19.66495Q234.25102 18.50480 234.32133 16.83488Q234.39164 15.16495 234.47953 13.26652Q234.56742 11.36808 234.63773 9.71574Q234.67289 8.83683 234.56742 8.09855Q234.46195 7.36027 234.28617 7.21964Q234.00492 7.28995 233.17875 8.52042Q232.35258 9.75089 231.08695 12.80949Q230.91117 13.19620 230.55961 13.40714Q230.20805 13.61808 229.82133 13.61808Q229.22367 13.61808 228.87211 13.21378Q228.52055 12.80949 228.52055 12.28214Q228.52055 12.03605 228.62602 11.75480Q230.20805 7.99308 231.64945 6.21769Q233.09086 4.44230 234.46195 4.44230Q235.27055 4.44230 235.81547 4.81144Q236.36039 5.18058 236.67680 5.76066Q236.99320 6.34074 237.13383 7.07902Q237.27445 7.81730 237.27445 8.52042Q237.27445 11.64933 237.11625 14.25089Q236.95805 16.85245 236.78227 19.48917Z" fill="rgb(90,58,41)" fill-opacity="1.00" transform="matrix(2.436138 0 0 2.436138 1025.000148 1249.616307) translate(0 0)"></path><path d="M304.37648 12.80949Q304.23586 13.09074 303.79641 13.98722Q303.35695 14.88370 302.67141 16.04386Q301.98586 17.20402 301.07180 18.46964Q300.15773 19.73527 299.03273 20.78995Q297.90773 21.84464 296.60695 22.53019Q295.30617 23.21574 293.86477 23.21574Q291.82570 23.21574 290.43703 21.91495Q289.04836 20.61417 288.41555 18.64542Q287.22023 20.64933 285.56789 21.82706Q283.91555 23.00480 282.26320 23.00480Q280.96242 23.00480 279.90773 22.53019Q278.85305 22.05558 278.11477 21.19425Q277.37648 20.33292 276.97219 19.17277Q276.56789 18.01261 276.56789 16.64152Q276.56789 13.89933 277.49953 11.80753Q278.43117 9.71574 279.87258 8.30949Q281.31398 6.90324 283.05422 6.20011Q284.79445 5.49699 286.41164 5.49699Q287.50148 5.49699 288.41555 5.79581Q289.32961 6.09464 289.98000 6.44620Q290.63039 6.79777 290.98195 7.09660Q291.33352 7.39542 291.36867 7.43058Q291.75539 7.88761 291.75539 8.37980Q291.75539 8.90714 291.36867 9.31144Q290.98195 9.71574 290.45461 9.71574Q289.89211 9.71574 289.50539 9.32902Q289.43508 9.25870 289.18898 9.06535Q288.94289 8.87199 288.52102 8.66105Q288.09914 8.45011 287.51906 8.29191Q286.93898 8.13370 286.20070 8.13370Q285.11086 8.13370 283.88039 8.62589Q282.64992 9.11808 281.63039 10.15519Q280.61086 11.19230 279.92531 12.75675Q279.23977 14.32120 279.23977 16.46574Q279.23977 17.13370 279.38039 17.81925Q279.52102 18.50480 279.87258 19.06730Q280.22414 19.62980 280.82180 19.98136Q281.41945 20.33292 282.29836 20.33292Q282.93117 20.33292 283.75734 19.91105Q284.58352 19.48917 285.33938 18.61027Q286.09523 17.73136 286.71047 16.39542Q287.32570 15.05949 287.57180 13.23136Q287.64211 12.73917 288.02883 12.40519Q288.41555 12.07120 288.94289 12.07120Q289.43508 12.07120 289.80422 12.45792Q290.17336 12.84464 290.20852 13.33683Q290.24367 14.00480 290.34914 15.21769Q290.45461 16.43058 290.82375 17.62589Q291.19289 18.82120 291.93117 19.70011Q292.66945 20.57902 293.97023 20.57902Q294.81398 20.57902 295.64016 20.12199Q296.46633 19.66495 297.25734 18.90910Q298.04836 18.15324 298.76906 17.18644Q299.48977 16.21964 300.08742 15.23527Q300.68508 14.25089 301.14211 13.33683Q301.59914 12.42277 301.91555 11.75480Q302.09133 11.36808 302.42531 11.15714Q302.75930 10.94620 303.14602 10.94620Q303.74367 10.94620 304.11281 11.38566Q304.48195 11.82511 304.48195 12.31730Q304.48195 12.56339 304.37648 12.80949Z" fill="rgb(90,58,41)" fill-opacity="1.00" transform="matrix(2.436138 0 0 2.436138 1025.000148 1249.616307) translate(0 0)"></path><path d="M310.20117 -4.97958Q310.20117 -3.64364 309.26953 -2.71200Q308.33789 -1.78036 307.00195 -1.78036Q305.66602 -1.78036 304.73438 -2.71200Q303.80273 -3.64364 303.80273 -4.97958Q303.80273 -5.64755 304.04883 -6.22762Q304.29492 -6.80770 304.73438 -7.24715Q305.17383 -7.68661 305.75391 -7.93270Q306.33398 -8.17880 307.00195 -8.17880Q307.66992 -8.17880 308.25000 -7.93270Q308.83008 -7.68661 309.26953 -7.24715Q309.70898 -6.80770 309.95508 -6.22762Q310.20117 -5.64755 310.20117 -4.97958ZM304.50586 15.62199Q304.50586 10.55949 305.13867 5.53214Q305.20898 5.03995 305.57813 4.67081Q305.94727 4.30167 306.54492 4.30167Q307.07227 4.30167 307.42383 4.70597Q307.77539 5.11027 307.77539 5.63761Q307.77539 5.84855 307.68750 6.90324Q307.59961 7.95792 307.47656 9.41691Q307.35352 10.87589 307.26563 12.51066Q307.17773 14.14542 307.17773 15.51652Q307.17773 17.37980 307.54688 18.52238Q307.91602 19.66495 308.49609 20.29777Q309.07617 20.93058 309.72656 21.14152Q310.37695 21.35245 310.97461 21.35245Q311.95898 21.35245 313.01367 20.64933Q314.06836 19.94620 315.17578 18.68058Q316.28320 17.41495 317.40820 15.63956Q318.53320 13.86417 319.62305 11.68449Q319.79883 11.33292 320.11523 11.13956Q320.43164 10.94620 320.81836 10.94620Q321.38086 10.94620 321.75000 11.36808Q322.11914 11.78995 322.11914 12.28214Q322.11914 12.63370 321.97852 12.87980Q321.55664 13.68839 320.92383 14.84855Q320.29102 16.00870 319.48242 17.23917Q318.67383 18.46964 317.70703 19.68253Q316.74023 20.89542 315.65039 21.86222Q314.56055 22.82902 313.36523 23.42667Q312.16992 24.02433 310.93945 24.02433Q309.35742 24.02433 308.16211 23.35636Q306.96680 22.68839 306.14063 21.56339Q305.31445 20.43839 304.91016 18.90910Q304.50586 17.37980 304.50586 15.62199ZM308.23242 -4.97958Q308.23242 -5.47176 307.86328 -5.84090Q307.49414 -6.21005 307.00195 -6.21005Q306.50977 -6.21005 306.15820 -5.84090Q305.80664 -5.47176 305.80664 -4.97958Q305.80664 -4.48739 306.15820 -4.13583Q306.50977 -3.78426 307.00195 -3.78426Q307.49414 -3.78426 307.86328 -4.13583Q308.23242 -4.48739 308.23242 -4.97958Z" fill="rgb(90,58,41)" fill-opacity="1.00" transform="matrix(2.436138 0 0 2.436138 1025.000148 1249.616307) translate(0 0)"></path><path d="M329.91258 19.45402Q330.47508 18.29386 331.21336 16.90519Q331.95164 15.51652 332.79539 14.09269Q333.63914 12.66886 334.57078 11.26261Q335.50242 9.85636 336.52195 8.59074Q337.54148 7.36027 338.57859 6.81535Q339.61570 6.27042 340.52977 6.27042Q342.35789 6.27042 343.23680 7.60636Q344.11570 8.94230 344.11570 10.91105Q344.11570 11.36808 344.06297 12.01847Q344.01023 12.66886 343.95750 13.40714Q343.90477 14.14542 343.85203 14.90128Q343.79930 15.65714 343.79930 16.32511Q343.79930 17.16886 343.88719 17.94230Q343.97508 18.71574 344.22117 19.29581Q344.46727 19.87589 344.92430 20.20988Q345.38133 20.54386 346.11961 20.54386Q347.45555 20.54386 348.72117 19.50675Q349.98680 18.46964 351.05906 17.04581Q352.13133 15.62199 352.92234 14.14542Q353.71336 12.66886 354.10008 11.75480Q354.27586 11.36808 354.60984 11.15714Q354.94383 10.94620 355.33055 10.94620Q355.92820 10.94620 356.29734 11.38566Q356.66648 11.82511 356.66648 12.31730Q356.66648 12.56339 356.56102 12.80949Q356.42039 13.09074 355.99852 13.96964Q355.57664 14.84855 354.89109 15.99113Q354.20555 17.13370 353.29148 18.41691Q352.37742 19.70011 351.27000 20.75480Q350.16258 21.80949 348.87938 22.51261Q347.59617 23.21574 346.18992 23.21574Q344.60789 23.21574 343.62352 22.60050Q342.63914 21.98527 342.07664 20.98331Q341.51414 19.98136 341.32078 18.76847Q341.12742 17.55558 341.12742 16.32511Q341.12742 15.79777 341.18016 15.12980Q341.23289 14.46183 341.32078 13.72355Q341.40867 12.98527 341.46141 12.24699Q341.51414 11.50870 341.51414 10.84074Q341.51414 9.71574 341.16258 9.31144Q340.81102 8.90714 340.52977 8.90714Q339.96727 8.90714 339.24656 9.55753Q338.52586 10.20792 337.73484 11.26261Q336.94383 12.31730 336.11766 13.63566Q335.29148 14.95402 334.57078 16.25480Q333.85008 17.55558 333.23484 18.73331Q332.61961 19.91105 332.26805 20.68449Q331.56492 22.16105 330.86180 22.67081Q330.15867 23.18058 329.42039 23.18058Q328.40086 23.18058 327.78563 22.56535Q327.17039 21.95011 327.17039 20.82511Q327.17039 20.57902 327.24070 19.85831Q327.31102 19.13761 327.41648 18.13566Q327.52195 17.13370 327.62742 15.97355Q327.73289 14.81339 327.83836 13.67081Q327.94383 12.52824 328.01414 11.54386Q328.08445 10.55949 328.08445 9.89152Q328.08445 9.01261 328.01414 8.20402Q327.94383 7.39542 327.73289 7.21964Q327.41648 7.32511 326.60789 8.53800Q325.79930 9.75089 324.53367 12.80949Q324.35789 13.19620 324.00633 13.40714Q323.65477 13.61808 323.26805 13.61808Q322.67039 13.61808 322.31883 13.21378Q321.96727 12.80949 321.96727 12.28214Q321.96727 12.03605 322.07273 11.75480Q323.65477 7.99308 325.04344 6.21769Q326.43211 4.44230 327.80320 4.44230Q328.61180 4.44230 329.17430 4.84660Q329.73680 5.25089 330.07078 5.91886Q330.40477 6.58683 330.56297 7.39542Q330.72117 8.20402 330.72117 9.04777Q330.72117 9.68058 330.63328 11.01652Q330.54539 12.35245 330.40477 13.88175Q330.26414 15.41105 330.14109 16.92277Q330.01805 18.43449 329.91258 19.45402Z" fill="rgb(90,58,41)" fill-opacity="1.00" transform="matrix(2.436138 0 0 2.436138 1025.000148 1249.616307) translate(0 0)"></path></g></g>

  </svg>